<?xml version="1.0" encoding="utf-8"?>
<!-- Generator: Adobe Illustrator 24.3.0, SVG Export Plug-In . SVG Version: 6.00 Build 0)  -->
<svg version="1.1" id="LOGO" xmlns="http://www.w3.org/2000/svg" xmlns:xlink="http://www.w3.org/1999/xlink" x="0px" y="0px"
	 viewBox="0 0 2770.3 546.7" style="enable-background:new 0 0 2770.3 546.7;" xml:space="preserve">
<style type="text/css">
	.st0{fill:#2E2D62;}
	.st1{fill:#FFFFFF;}
	.st2{fill:#00BED5;}
	.st3{fill:#008AAD;}
	.st4{fill:none;stroke:#FED100;stroke-width:0.5701;stroke-miterlimit:10;}
	.st5{fill:none;stroke:#171614;stroke-width:0.5701;stroke-miterlimit:10;}
	.st6{fill:#241F0C;}
	.st7{fill:#ED2939;}
	.st8{fill:#FED100;}
	.st9{fill:#1D1D1B;}
</style>
<g>
	<rect x="85.1" y="87.1" class="st0" width="282.3" height="282.3"/>
	<path class="st1" d="M336.3,118.2h-32.9l-44.3,47.1v-47.1h-63.9v62.6c0,13.4-9.9,21.2-23.1,21.2s-23.1-7.8-23.1-21.2v-62.6h-32.9
		v63c0,28.2,22.8,44.4,48.5,47.1h-48.5v110.1H149v-40.8h14.4l30.4,40.8h142.5v-22.2h-38.6v-65.6h38.6v-29l-47.2-48.3l47.2-48.2
		V118.2z M226.2,194.6v51.1c-7-11.8-23.1-17.3-47.1-17.4C200.5,226.1,220.2,214.6,226.2,194.6z M149,250.5h30.1
		c12.4,0,17.4,4.8,17.4,12.3c0,7.5-5,12.5-17.4,12.5H149V250.5z M264.8,316.1h-38.6v15.4l-27.2-35.6c20.7-3.8,31.4-14.5,31.4-33.1
		c0-4.6-0.7-8.7-1.9-12.3h36.3V316.1z M303.4,228.2h-44.3V181L303.4,228.2z"/>
	<g>
		<polygon class="st2" points="424.6,87.1 390,51.7 367.4,51.7 367.4,87.1 367.4,369.4 562.4,369.4 562.4,228.2 		"/>
		<polygon class="st3" points="424.6,87.1 562.4,228.2 562.4,369.4 649.7,369.4 649.7,87.1 		"/>
	</g>
</g>
<g>
	<g>
		<path class="st4" d="M1577.2,243c-0.5,12.4-2.3,23.7-5.4,33.5c-3,9.5-7.3,18.1-12.8,25.3c-10.2,13.5-22.6,20.2-30.8,24.6
			c-0.7,0.4-5.6,2.9-28.9,14.5V243H1577.2"/>
	</g>
	<path class="st4" d="M1439.6,243V341c-23.4-11.6-28.2-14.1-28.9-14.5c-8.2-4.5-20.6-11.2-30.8-24.6c-5.5-7.2-9.8-15.7-12.8-25.3
		c-3.1-9.9-4.9-21.1-5.4-33.5H1439.6"/>
	<path class="st5" d="M1577.3,103.5h-78v79.8h78V103.5L1577.3,103.5z"/>
	<path class="st5" d="M1439.6,103.5h-78v79.8h78V103.5L1439.6,103.5z"/>
	<path class="st6" d="M1469.5,368l-2.4-1.3c-3.5-1.7-58.3-29-61.6-30.8c-17.8-9.7-54.7-29.7-54.7-100.1V92.6h237.4v143.2
		c0,70.4-37,90.5-54.7,100.1c-3.3,1.8-58.4,29.2-61.6,30.8L1469.5,368z"/>
	<path class="st1" d="M1493.6,189V97.8h-48.3V189h-89.4v46.8l0,0c0,0.5,0,1,0,1.5h89.4v112.8c12.9,6.4,24.1,12,24.1,12c0,0,0,0,0,0
		s0,0,0,0c0,0,11.3-5.6,24.1-12V237.3h89.4c0-0.5,0-1,0-1.5V189H1493.6z"/>
	<g>
		<rect x="1355.9" y="97.8" class="st7" width="89.4" height="91.2"/>
		<rect x="1493.6" y="97.8" class="st7" width="89.4" height="91.2"/>
		<path class="st7" d="M1445.3,237.3h-89.4c0.5,65.4,34.1,84.4,52,94.1c1.8,1,20.9,10.5,37.4,18.7V237.3z"/>
		<path class="st7" d="M1493.6,237.3v112.8c16.4-8.2,35.5-17.7,37.4-18.7c18-9.8,51.5-28.7,52-94.1H1493.6z"/>
	</g>
	<g>
		<path class="st6" d="M1524.3,213.9l1.8-2.2l-2.3-2.8l-2.3,2.8l1.8,2.2c0,1.1,0.1,10.8-5.6,14.2c0,0,1.9,0.4,4.5-0.1
			c0,0,0.4,2.5,1.6,5.4c1.2-2.9,1.6-5.4,1.6-5.4c2.6,0.5,4.5,0.1,4.5,0.1C1524.2,224.7,1524.3,215,1524.3,213.9z"/>
		<path class="st6" d="M1538.9,197.4l1.8-2.2l-2.3-2.8l-2.3,2.8l1.8,2.2c0,1.1,0.1,10.8-5.6,14.2c0,0,1.9,0.4,4.5-0.1
			c0,0,0.4,2.5,1.6,5.4c1.2-2.9,1.6-5.4,1.6-5.4c2.6,0.5,4.5,0.1,4.5,0.1C1538.8,208.2,1538.9,198.5,1538.9,197.4z"/>
		<path class="st6" d="M1553.5,213.9l1.8-2.2l-2.3-2.8l-2.3,2.8l1.8,2.2c0,1.1,0.1,10.8-5.6,14.2c0,0,1.9,0.4,4.5-0.1
			c0,0,0.4,2.5,1.6,5.4c1.2-2.9,1.6-5.4,1.6-5.4c2.6,0.5,4.5,0.1,4.5,0.1C1553.4,224.7,1553.4,215,1553.5,213.9z"/>
		<path class="st6" d="M1568,197.4l1.8-2.2l-2.3-2.8l-2.3,2.8l1.8,2.2c0,1.1,0.1,10.8-5.6,14.2c0,0,1.9,0.4,4.5-0.1
			c0,0,0.4,2.5,1.6,5.4c1.2-2.9,1.6-5.4,1.6-5.4c2.6,0.5,4.5,0.1,4.5,0.1C1567.9,208.2,1568,198.5,1568,197.4z"/>
		<path class="st6" d="M1509.8,197.4l1.8-2.2l-2.3-2.8l-2.3,2.8l1.8,2.2c0,1.1,0.1,10.8-5.6,14.2c0,0,1.9,0.4,4.5-0.1
			c0,0,0.4,2.5,1.6,5.4c1.2-2.9,1.6-5.4,1.6-5.4c2.6,0.5,4.5,0.1,4.5,0.1C1509.7,208.2,1509.7,198.5,1509.8,197.4z"/>
	</g>
	<g>
		<path class="st6" d="M1386.5,213.9l1.8-2.2l-2.3-2.8l-2.3,2.8l1.8,2.2c0,1.1,0.1,10.8-5.6,14.2c0,0,1.9,0.4,4.5-0.1
			c0,0,0.4,2.5,1.6,5.4c1.2-2.9,1.6-5.4,1.6-5.4c2.6,0.5,4.5,0.1,4.5,0.1C1386.4,224.7,1386.4,215,1386.5,213.9z"/>
		<path class="st6" d="M1401,197.4l1.8-2.2l-2.3-2.8l-2.3,2.8l1.8,2.2c0,1.1,0.1,10.8-5.6,14.2c0,0,1.9,0.4,4.5-0.1
			c0,0,0.4,2.5,1.6,5.4c1.2-2.9,1.6-5.4,1.6-5.4c2.6,0.5,4.5,0.1,4.5,0.1C1400.9,208.2,1401,198.5,1401,197.4z"/>
		<path class="st6" d="M1415.6,213.9l1.8-2.2l-2.3-2.8l-2.3,2.8l1.8,2.2c0,1.1,0.1,10.8-5.6,14.2c0,0,1.9,0.4,4.5-0.1
			c0,0,0.4,2.5,1.6,5.4c1.2-2.9,1.6-5.4,1.6-5.4c2.6,0.5,4.5,0.1,4.5,0.1C1415.5,224.7,1415.6,215,1415.6,213.9z"/>
		<path class="st6" d="M1430.1,197.4l1.8-2.2l-2.3-2.8l-2.3,2.8l1.8,2.2c0,1.1,0.1,10.8-5.6,14.2c0,0,1.9,0.4,4.5-0.1
			c0,0,0.4,2.5,1.6,5.4c1.2-2.9,1.6-5.4,1.6-5.4c2.6,0.5,4.5,0.1,4.5,0.1C1430,208.2,1430.1,198.5,1430.1,197.4z"/>
		<path class="st6" d="M1371.9,197.4l1.8-2.2l-2.3-2.8l-2.3,2.8l1.8,2.2c0,1.1,0.1,10.8-5.6,14.2c0,0,1.9,0.4,4.5-0.1
			c0,0,0.4,2.5,1.6,5.4c1.2-2.9,1.6-5.4,1.6-5.4c2.6,0.5,4.5,0.1,4.5,0.1C1371.8,208.2,1371.9,198.5,1371.9,197.4z"/>
	</g>
	<g>
		<path class="st6" d="M1470.1,250.9l1.8-2.2l-2.3-2.8l-2.3,2.8l1.8,2.2c0,1.1,0.1,10.8-5.6,14.2c0,0,1.9,0.4,4.5-0.1
			c0,0,0.4,2.5,1.6,5.4c1.2-2.9,1.6-5.4,1.6-5.4c2.6,0.5,4.5,0.1,4.5,0.1C1470,261.7,1470,252,1470.1,250.9z"/>
		<path class="st6" d="M1470.1,300.4l1.8-2.2l-2.3-2.8l-2.3,2.8l1.8,2.2c0,1.1,0.1,10.8-5.6,14.2c0,0,1.9,0.4,4.5-0.1
			c0,0,0.4,2.5,1.6,5.4c1.2-2.9,1.6-5.4,1.6-5.4c2.6,0.5,4.5,0.1,4.5,0.1C1470,311.2,1470,301.5,1470.1,300.4z"/>
		<g>
			<path class="st6" d="M1483.6,275.7l1.8-2.2l-2.3-2.8l-2.3,2.8l1.8,2.2c0,1.1,0.1,10.8-5.6,14.2c0,0,1.9,0.4,4.5-0.1
				c0,0,0.4,2.5,1.6,5.4c1.2-2.9,1.6-5.4,1.6-5.4c2.6,0.5,4.5,0.1,4.5,0.1C1483.5,286.4,1483.5,276.8,1483.6,275.7z"/>
			<path class="st6" d="M1456.4,275.7l1.8-2.2l-2.3-2.8l-2.3,2.8l1.8,2.2c0,1.1,0.1,10.8-5.6,14.2c0,0,1.9,0.4,4.5-0.1
				c0,0,0.4,2.5,1.6,5.4c1.2-2.9,1.6-5.4,1.6-5.4c2.6,0.5,4.5,0.1,4.5,0.1C1456.3,286.4,1456.4,276.8,1456.4,275.7z"/>
		</g>
	</g>
	<g>
		<g>
			<path class="st6" d="M1483.6,325.1l1.8-2.2l-2.3-2.8l-2.3,2.8l1.8,2.2c0,1.1,0.1,10.8-5.6,14.2c0,0,1.9,0.4,4.5-0.1
				c0,0,0.4,2.5,1.6,5.4c1.2-2.9,1.6-5.4,1.6-5.4c2.6,0.5,4.5,0.1,4.5,0.1C1483.5,335.9,1483.5,326.2,1483.6,325.1z"/>
			<path class="st6" d="M1456.4,325.1l1.8-2.2l-2.3-2.8l-2.3,2.8l1.8,2.2c0,1.1,0.1,10.8-5.6,14.2c0,0,1.9,0.4,4.5-0.1
				c0,0,0.4,2.5,1.6,5.4c1.2-2.9,1.6-5.4,1.6-5.4c2.6,0.5,4.5,0.1,4.5,0.1C1456.3,335.9,1456.4,326.2,1456.4,325.1z"/>
		</g>
	</g>
	<g>
		<path class="st6" d="M1470.1,138.3l1.8-2.2l-2.3-2.8l-2.3,2.8l1.8,2.2c0,1.1,0.1,10.8-5.6,14.2c0,0,1.9,0.4,4.5-0.1
			c0,0,0.4,2.5,1.6,5.4c1.2-2.9,1.6-5.4,1.6-5.4c2.6,0.5,4.5,0.1,4.5,0.1C1470,149.1,1470,139.4,1470.1,138.3z"/>
		<g>
			<path class="st6" d="M1483.6,113.6l1.8-2.2l-2.3-2.8l-2.3,2.8l1.8,2.2c0,1.1,0.1,10.8-5.6,14.2c0,0,1.9,0.4,4.5-0.1
				c0,0,0.4,2.5,1.6,5.4c1.2-2.9,1.6-5.4,1.6-5.4c2.6,0.5,4.5,0.1,4.5,0.1C1483.5,124.4,1483.5,114.7,1483.6,113.6z"/>
			<path class="st6" d="M1456.4,113.6l1.8-2.2l-2.3-2.8l-2.3,2.8l1.8,2.2c0,1.1,0.1,10.8-5.6,14.2c0,0,1.9,0.4,4.5-0.1
				c0,0,0.4,2.5,1.6,5.4c1.2-2.9,1.6-5.4,1.6-5.4c2.6,0.5,4.5,0.1,4.5,0.1C1456.3,124.4,1456.4,114.7,1456.4,113.6z"/>
		</g>
		<g>
			<path class="st6" d="M1483.6,163.1l1.8-2.2l-2.3-2.8l-2.3,2.8l1.8,2.2c0,1.1,0.1,10.8-5.6,14.2c0,0,1.9,0.4,4.5-0.1
				c0,0,0.4,2.5,1.6,5.4c1.2-2.9,1.6-5.4,1.6-5.4c2.6,0.5,4.5,0.1,4.5,0.1C1483.5,173.8,1483.5,164.2,1483.6,163.1z"/>
			<path class="st6" d="M1456.4,163.1l1.8-2.2l-2.3-2.8l-2.3,2.8l1.8,2.2c0,1.1,0.1,10.8-5.6,14.2c0,0,1.9,0.4,4.5-0.1
				c0,0,0.4,2.5,1.6,5.4c1.2-2.9,1.6-5.4,1.6-5.4c2.6,0.5,4.5,0.1,4.5,0.1C1456.3,173.8,1456.4,164.2,1456.4,163.1z"/>
		</g>
	</g>
	<g>
		<path class="st6" d="M1426,142.8l0.3,1.1c0.3,1,0.5,1.8,0.6,2.4c1,4.3,1.8,5.5,3.9,5.5c1.2,0,2.2-0.7,2.5-1.7l0.5-1.5
			c0.1-0.3,0.4-0.6,0.7-0.6c0.8,0,1.2,0.9,1.2,2.8c0,0.5,0.2,1.8,0.5,3.7c0.2,1.1,0.3,2.2,0.3,3.3c0,1-0.1,1.4-0.4,2.4
			c0.3,1.5,0.5,3.5,0.5,4.6c0,1.9-0.4,3.6-0.9,4.5c0.3,1.3,0.4,1.8,0.4,2.9c0,0.8-0.1,1.7-0.2,2.5c-0.3,1.8-0.4,2.3-0.4,2.6
			c0,0.3,0.1,0.7,0.2,1c0.1,0.4,0.2,0.7,0.2,0.9c0,0.2-0.1,0.4-0.2,0.4l-1.5-0.6l-1.7-0.9c-0.5-0.3-0.9-0.6-1.7-1.4
			c-1.5,1.3-1.9,1.5-5.8,2.6c-0.8,0.2-1.3,0.4-1.7,0.7c-0.5,0.3-0.8,0.5-1,0.5c-0.7,0-1-1-1-3.2c0-1.6,0.2-3.1,0.5-4.2
			c-1.1-0.4-2.1-0.7-2.7-0.7c-0.1,0-0.5,0.1-1.2,0.1l-0.3,0c-0.2,0-0.4-0.3-0.4-0.7c0-0.3,0.2-1,0.5-1.6l0.8-1.8
			c0.3-0.7,0.9-1.4,1.8-2.2c0.7-0.6,1.4-1,2-1.1l2.7-0.5c1.6-0.3,2.6-1.2,2.6-2.3c0-1.1-0.7-1.8-2.4-2.4l-3.3-1.1
			c-0.8-0.3-1.8-0.8-3-1.4c-1.8-1.1-2.1-1.2-2.5-1.2c-0.7,0-1,0.5-1,1.3c0,1.3,0.9,2.3,2.1,2.3c0.3,0,0.5-0.1,0.8-0.2
			c0.4-0.1,0.6-0.2,0.8-0.2c0.3,0,0.5,0.2,0.5,0.6l0,0.3l-0.2,1.3c-0.1,1.1-0.8,2.4-2.4,4.6l-0.7,0.9c-0.6,2.4-2.1,4.7-4.1,6
			c-0.5,0.3-0.8,0.5-0.8,0.6c-0.1,0.1-0.3,0.4-0.6,1.1c-0.2,0.3-0.7,0.9-1.5,1.8c-0.6,0.7-1.3,1.3-1.9,1.7c-0.8,0.6-1.4,1.1-1.5,1.4
			l-0.8,1.3c-0.1,0.2-0.4,0.4-0.6,0.4c-0.7,0-1.3-0.7-1.7-1.9c-0.3-0.9-0.5-1.1-1.1-1.1c-0.3,0-0.7,0.1-1.3,0.2l-1.1,0.1h-2.7
			c-1.4,0-3.3,0.4-4.2,0.8c-0.4,0.2-0.6,0.2-0.8,0.2c-0.2,0-0.3-0.1-0.5-0.5c-0.1-0.3-0.2-0.4-0.2-0.6c0-1.4,1-4,2.3-6.1
			c0.8-1.3,1.1-1.6,2-2.4c-0.3-1.3-1.1-2.3-2.1-2.6l-1.3-0.4c-0.2-0.1-0.3-0.2-0.3-0.4c0-0.4,0.6-0.9,1.7-1.5c1.5-0.8,3-1.2,4.2-1.2
			c1.3,0,2.5,0.5,3.9,1.6c2.1,1.6,2.6,1.9,3.6,1.9c1.6,0,3.2-1.5,3.2-3c0-1-0.6-2.1-2-4c-2.1-2.7-2.7-4.2-2.7-6.2
			c0-1.2,0.4-2.8,0.8-3.5l0.8-1.1c0.2-0.3,0.3-0.5,0.3-0.7c0-0.5-0.6-0.9-1.4-0.9c-1.2,0-3.5,0.9-5.3,2c-0.9,0.6-1.5,1.2-1.5,1.6
			c0,0.2,0.1,0.5,0.3,0.6l0.8,0.5c0.1,0.1,0.2,0.2,0.2,0.3c0,0.1-0.1,0.3-0.3,0.6l-1.5,2c-0.8,1-2,2.3-3.2,3.3
			c-0.4,0.4-0.7,0.6-0.8,0.8c0,0-0.2,0.4-0.6,1.1c-0.5,1-2,2.5-3.3,3.4c-0.6,0.4-0.9,0.7-1.1,0.8c-0.1,0.1-0.3,0.5-0.6,1.1
			c-0.2,0.4-0.5,0.9-1,1.6c-0.7,1.1-1.4,1.9-1.8,2.4l-2.1,2.1c-0.7,0.6-1.2,1.9-2.1,4.7c-0.5,1.7-1,2.7-1.3,2.7
			c-0.1,0-0.3-0.2-0.6-0.5c-1.5-1.7-2.8-2.7-3.5-2.7c-0.2,0-0.4,0.1-0.8,0.4c-0.6,0.3-1.2,0.6-2,0.8l-2.8,0.5
			c-2.1,0.4-3,0.9-4.2,2.3c-0.3,0.3-0.5,0.5-0.7,0.5c-0.2,0-0.4-0.4-0.4-0.9l0.1-0.7l0.4-2c0.4-2.2,0.9-3.8,1.5-4.9l1.3-2.4
			c0.3-0.5,0.4-0.9,0.4-1.2c0-1.7-1.8-3.3-4-3.5c-0.6,0-0.8-0.2-0.8-0.5c0-0.4,0.6-1.1,1.5-1.8c1.5-1.2,3.5-2,4.8-2
			c0.8,0,2,0.3,3.4,0.9l1.7,0.7c0.6,0.3,1.2,0.4,1.7,0.4c1.8,0,3.5-1.6,5.6-5.2c1-1.6,1.4-2.8,1.4-3.9c0-1.9-0.9-3.1-2.4-3.1
			c-1.1,0-2.4,0.5-3.3,1.4c-0.8,0.8-1.2,1.6-1.2,2.3l0,0.8l0,0.2c0,0.7-0.2,1.1-0.7,1.1c-0.7,0-1.8-1-4.7-4.6
			c-2.2-2.7-2.7-3.8-2.8-6.5c-2.6-3.3-3.2-4.7-3.2-7l0.1-1.6c-1.8-2.1-2.3-3.3-2.3-5.3c0-0.7,0.1-1.1,0.5-2c-0.9-1.3-1.2-1.9-1.4-3
			l-0.4-1.6c-0.3-1.1-0.7-2-1.2-2.8c-0.7-1-0.8-1.1-0.8-1.5c0-0.9,0.6-1.2,3.3-1.9c-0.1-0.7-0.2-1.3-0.2-1.7c0-0.4,0.1-0.9,0.2-1.8
			l0.5-2.8c0.2-1.1,0.3-1.9,0.3-2.4c0-0.5-0.1-0.9-0.6-2.4c-0.3-0.9-0.5-1.5-0.7-1.7c-0.3-0.4-0.5-0.9-0.5-1c0-0.3,0.2-0.4,0.5-0.4
			c0.8,0,2.7,1.2,4.8,2.9c4.3,3.6,5.2,5,5.8,9.4c0,0.3,0.1,0.8,0.2,1.5c2.1,1.5,3.2,3.4,3.2,5.4c0,1.6-0.6,3.4-1.5,4.9l-1.5,2.4
			c-0.4,0.7-0.7,1.6-0.7,2.5c0,1.4,0.4,2.7,1.4,4.5c1.2,2,2.2,2.9,3.4,2.9c2,0,3.7-3.5,3.7-7.4V133l0-1.4c0-0.8,0-1.5,0.2-2.5
			c0.1-1.2,0.2-1.9,0.2-2.2l0.1-1.8l0-1.2c0-0.4-0.2-0.9-0.8-1.5l-1.7-1.8c-2.4-2.6-3.7-5.1-3.7-7c0-2.3,1.7-4,3.9-4
			c0.4,0,0.8,0.1,1.6,0.3v-0.5c0-3.3,0.7-5.8,1.6-5.8l0.4,0.1l1.4,1.2l1.7,1.1l0.5,0.5c0-0.9,0-1,1-2.1c0.2-0.3,0.6-0.7,1.1-1.4
			c0.4-0.6,0.6-0.9,0.8-1.1c0.1-0.2,0.2-0.4,0.4-0.7c0.2-0.4,0.4-0.6,0.6-0.6c0.2,0,0.4,0.3,0.7,1.1c0.2,0.5,0.3,0.7,1.6,1.8
			c0.5,0.4,0.8,0.7,0.9,1c0.1,0.2,0.3,0.7,0.6,1.5c0,0.1,0.1,0.3,0.2,0.6c0.6-0.7,0.8-1,1.5-1.4l1.1-0.7c0.4-0.3,0.7-0.4,0.8-0.4
			c0.1,0,0.2,0.2,0.4,0.5c0.1,0.3,0.3,0.6,0.6,1.1c0.8,1.4,1.1,2.1,1.1,2.7l0,0.7v0.9c2.5,0.8,3.4,2.1,3.4,4.7c0,1.9-1,4.1-3,6.5
			c-1.3,1.6-1.5,1.9-1.5,2.9c0,5.6,3.9,8.9,10.8,9l5.1,0.1c3.3,0.1,5.2,0.4,8.3,1.4c3.6,1.2,4.7,1.4,5.7,1.4c0.4,0,0.7-0.1,1-0.3
			c0.3-0.2,0.5-0.4,0.5-0.7c0-1.1-1.9-1.9-8-3.6c-12.5-3.5-17.8-8.6-17.8-16.9c0-6.4,5.3-11.4,12.2-11.4c2.2,0,5.6,0.6,7.6,1.3
			l3.1,1.1c0.6,0.2,1.1,0.3,1.6,0.3c1.1,0,1.6-0.9,1.6-2.7c0-1,0.2-1.3,0.9-1.3c0.9,0,2.2,1.1,3.5,2.8c1.2,1.7,2.1,3.7,2.1,5
			c0,1.7-0.8,2.9-2.7,4c-1.7,2.6-3.8,3.8-6.6,3.8c-2.2,0-5.3-1.2-10.4-4.2c-1.8-1-2.7-1.4-3.7-1.4c-1.3,0-2.2,0.8-2.2,2
			c0,1.1,0.8,1.8,3.1,2.6c3.3,1.1,4.1,1.6,5.4,3c3.9,0.7,5.5,1.3,8,3.2c6.7,2.1,10.8,6.6,10.8,11.8c0,5.1-3.4,8.7-8.2,8.7
			C1428.5,143.3,1427.8,143.2,1426,142.8"/>
		<path class="st8" d="M1433.5,176c-0.2-0.9-0.3-1.4-0.3-1.8l0.1-0.6l0.2-1.2l0.1-1c0-1.1-0.2-1.8-0.5-2.3l-0.9-1.2
			c-0.3-0.4-0.6-0.9-0.8-1.4c-0.1-0.3-0.2-0.5-0.2-0.6c0-0.3,0.2-0.6,0.5-0.6c0.2,0,0.3,0,1,0.4c0.3,0.2,0.6,0.3,0.7,0.3
			c0.5,0,0.7-0.7,0.7-2c0-1.5-0.1-2.3-0.5-2.6l-1.1-1.3l-1-0.8c-0.2-0.2-0.4-0.5-0.4-0.7c0-0.3,0.3-0.6,0.6-0.6
			c0.3,0,1.1,0.2,1.7,0.4l0.3,0.1c0.3,0,0.4-0.2,0.4-0.6l0-0.3l-0.2-1.6l-0.5-1.7c-0.1-0.5-0.2-0.6-0.6-0.6l-0.2,0l-1.9,0.4l-0.3,0
			c-2.5,0-5.1-2.1-5.9-4.7l-1.5-4.9c-0.5-1.5-1.6-3-3.6-4.6c-0.6-0.5-1.1-0.8-1.5-0.8l-1.4-0.2c-0.2,0-0.4-0.2-0.4-0.4
			c0-0.3,0.3-0.5,0.9-0.5l2.5,0.2c0.9,0.1,2.3,0.4,4.1,1.1c2.3,0.8,3.8,1.1,5.1,1.1c3.8,0,6.1-2.1,6.1-5.5c0-2.3-1.2-5-3.1-6.7
			c-1.1-1-2.1-1.7-2.5-1.7c-0.2,0-0.4,0.2-0.4,0.4l0.1,1l0,0.1c0,0.4-0.2,0.7-0.5,0.7c-0.4,0-0.8-0.5-1.3-1.5
			c-1.4-3-3.7-4.8-6.1-4.8c-0.4,0-0.7,0.2-0.7,0.4c0,0.2,0.1,0.5,0.4,1.1l0.6,1.4c0.2,0.4,0.2,0.6,0.2,0.7c0,0.1-0.1,0.2-0.3,0.2
			c-0.4,0-0.9-0.3-1.3-0.7l-1.1-1.2l-1-1.5c-0.8-1.2-1.4-1.8-3.1-2.6c-0.9-0.5-1.5-0.8-1.8-1c-0.3-0.2-0.7-0.3-0.9-0.3
			c-0.3,0-0.4,0.1-0.4,0.4c0,0.2,0.1,0.5,0.3,0.8c0.6,0.9,0.8,1.3,0.8,1.5c0,0.2-0.2,0.4-0.4,0.4c-0.6,0-1.8-1.2-2.9-2.8
			c-0.9-1.3-1.4-2.8-1.4-4.3c0-3.3,2.4-5.7,5.6-5.7c1.7,0,3.8,0.7,5.7,1.9l3.6,2.2c1.2,0.8,3.1,1.4,4.1,1.4c0.5,0,1.5-0.2,2.2-0.4
			c0.3-0.1,0.6-0.2,0.9-0.4c0.2-0.1,0.4-0.3,0.4-0.4c0-0.2-0.1-0.3-0.2-0.3l-0.5-0.2l-1.7-0.3c-0.4-0.1-1.1-0.3-2-0.8
			c-2-0.9-3.3-1.5-3.8-1.9c-1.2-0.8-2.1-1.3-2.5-1.4c-0.6-0.2-1-0.5-1-0.7c0-0.2,0.1-0.3,0.3-0.3c0.2,0,0.5,0.1,0.8,0.3
			c1.1,0.7,2.1,1.1,2.8,1.1l3.3,1.1c1.6,0.6,4,1.1,5,1.1c1.4,0,2.5-1.1,2.5-2.5c0-0.9-0.5-2.2-1.3-3.3c-0.2-0.2-0.4-0.4-0.5-0.4
			c-0.3,0-0.5,0.2-0.5,0.6l0.1,0.6l0.1,0.9c0,1-0.7,1.8-1.5,1.8c-0.3,0-0.7-0.1-1.2-0.2l-4.9-1.6c-4.1-1.3-6-1.7-8.1-1.7
			c-5.9,0-10.4,4.1-10.4,9.4c0,6,4.2,9.9,14.7,13.5c10.3,3.5,11.7,4.4,11.7,7.1c0,1.5-1.5,2.9-3.3,2.9c-0.7,0-1.3-0.1-1.8-0.2
			c-0.3-0.1-2.1-0.5-5.2-1.2c-3.1-0.7-5.9-1.1-9.4-1.1c-7.4,0-11.6,1.3-15.1,4.8c-0.9,0.9-1.2,1-2.2,1l-0.5,0l-1.1-0.1l-0.1,0
			c-0.9,0-1.5,0.4-2.1,1.4c-0.8,1.3-1.2,2-1.3,2c-0.2,0.3-0.5,0.5-0.9,0.5c-0.7,0-1.1-0.5-1.9-2.3c-0.4-0.9-0.9-1.7-1.6-2.3
			l-1.5-1.4c-0.2-0.2-0.4-0.4-0.4-0.6c0-0.2,0.1-0.4,0.3-0.7c0.7-1.1,1-1.5,1.1-2c0.2-1,0.2-1.1,0.6-1.1c0.5,0,0.6,0.5,0.6,2.2
			c0,0.5,0.2,1.2,0.6,2l0.8,1.8c0.1,0.2,0.4,0.4,0.7,0.4c0.8,0,1.8-1.8,2-3.8c0.2-1.6,0.4-2.1,0.7-2.1c0.1,0,0.3,0.1,0.3,0.2
			c0.1,0.1,0.3,0.6,0.7,1.4c0.2,0.4,0.5,0.8,1,1.1c0.4,0.3,0.7,0.5,0.9,0.5l0.1,0c0.6,0,0.8-0.4,1-1.8l0.1-0.8l-0.2-1.1l-0.1-0.7
			c0-0.5,0.2-0.8,0.4-0.8c0.2,0,0.4,0.1,0.6,0.3l0.8,0.8c0.5,0.5,1,0.8,1.5,0.8c0.6,0,1-0.3,1-0.7c0-0.4-0.1-0.7-0.7-1.8l-0.5-1
			c-0.6-1.1-1.1-1.6-1.7-1.6l-0.8,0.1l-0.9,0.4c-0.3,0.1-0.5,0.2-0.6,0.2c-0.1,0-0.2-0.1-0.2-0.3c0-0.7,0.4-1.8,1.3-3.1
			c0.6-1,1-3,1.2-6c0.3-4,0.8-6.5,1.3-6.5c0.4,0,0.5,0.3,0.5,1.2l0,1l0,0.7c0,0.7,0.2,1.3,0.3,1.3c0.6,0,1.4-1,2-2.5
			c0.3-0.7,0.4-1.2,0.4-1.5l-0.1-0.4l-1.5-2.8l-1.5-0.5c-0.3-0.1-0.5-0.2-0.5-0.3v-1v-0.8l-0.2-0.9l-0.3-0.8l-0.4-0.8
			c-1.7,0.9-2.4,1.5-3,2.3c-0.6,0.8-0.9,1.1-1.2,1.1c-0.2,0-0.4-0.2-0.4-0.4c0-0.2,0.1-0.6,0.2-1.2l0-0.4c0-1.6-1-3.2-2.6-4.3
			l-0.5,0.6l-0.5,0.8l-0.9,1.1c-0.3,0.3-0.5,0.9-0.8,1.5c-0.1,0.3-0.2,0.6-0.2,0.9l0,0.1l0,0.3c0,0.6-0.1,0.8-0.4,0.8l-0.2-0.1
			l-0.5-0.8l-0.8-0.9l-1.3-0.8l-0.7-0.5c-0.1,0.3-0.2,0.5-0.3,0.7c-0.2,0.5-0.4,0.9-0.4,1.2l-0.1,1.2l-0.1,1.3l0,0.2
			c0,0.7-0.2,0.9-0.6,0.9c-0.1,0-0.5-0.2-0.9-0.4c-0.3-0.2-0.7-0.3-1.1-0.3c-1.2,0-1.9,0.8-1.9,2.1c0,1.5,0.4,3,1.2,4l1,1.3
			c0.3,0.3,0.8,0.6,0.8,0.5l0.2-1.6l-0.2-1.3l0-0.6c0-0.5,0.2-0.8,0.5-0.8c0.4,0,0.7,0.5,1,1.7l0.6,2.8l0.6,3.6c0.2,1,0.5,2,0.9,3
			c0.6,1.4,1,2.3,1.3,2.7c0.8,1.1,0.9,1.2,0.9,1.5c0,0.2-0.2,0.4-0.3,0.4c-0.2,0-0.4-0.1-0.7-0.2c-0.3-0.1-0.6-0.2-0.9-0.3l-0.6-0.1
			c-1.2,0-1.5,1-1.5,6.1c0,3.1,0.7,7.3,1.5,9.3l1.6,4c0.3,0.6,0.4,1.3,0.4,1.9c0,5.5-7.3,14.2-15.4,18.2c-3,1.5-4,2.9-4.2,6.2
			l-0.1,1c1.2-0.6,1.7-0.8,2.6-1.1c2.3-0.6,2.7-0.9,3-2l0.3-1c0.1-0.4,0.3-0.5,2-1.4c0.6-0.3,1-0.7,1.2-1c0.4-0.6,0.7-1,0.9-1
			c0.2,0,0.3,0.1,0.3,0.2l-0.1,0.3l-0.8,2.2l-0.1,0.5c0,1.6,0.9,2.9,2.5,3.7c0.3-1.8,0.5-2.4,1-3.2l1.4-2.1c0.5-0.8,0.7-1.7,0.7-3.2
			c0-0.8-0.1-1.7-0.2-2.4l-0.1-0.6c0-0.4,0.2-0.6,0.5-0.6c0.3,0,0.5,0.1,0.5,0.2l0.3,1.4c0.1,0.3,0.4,0.5,0.7,0.5
			c0.7,0,1.7-0.9,2.7-2.7c0.4-0.6,0.6-1.3,0.6-2l-0.1-1l-0.2-1.1l0-0.2c0-0.5,0.3-0.8,0.7-0.8c0.2,0,0.3,0.1,0.3,0.1l0.5,1.8
			c0.2,0.6,0.6,1,1,1c0.5,0,1.4-0.9,1.9-1.9c0.5-0.9,0.7-1.9,0.7-3.1c0-1.6,0.2-2.1,0.8-2.1c0.2,0,0.3,0.1,0.4,0.2l0.3,1
			c0.1,0.4,0.3,0.6,0.5,0.6c0.3,0,1.2-0.9,1.7-1.9c0.2-0.3,0.2-0.5,0.2-0.7c0-0.3-0.2-0.7-0.7-1c-0.8-0.7-0.8-0.8-0.8-1.7
			c0-1,0.2-1.5,0.8-2.6c0.4-0.6,0.7-1.3,1-1.8c1-1.9,1.3-2.4,1.6-2.4c0.3,0,0.6,0.3,0.6,0.7c0,0.2-0.1,0.4-0.2,0.6
			c-0.2,0.4-0.3,0.7-0.3,0.9c0,0.3,0.3,0.5,0.6,0.5c0.3,0,0.8-0.2,1.3-0.5c0.2-0.1,0.9-0.4,2.1-0.8l2.5-0.9c0.4-0.2,0.9-0.2,1.5-0.2
			c0.5,0,0.9,0.1,1.4,0.2c0.9,0.2,1.5,0.3,1.7,0.3c0.7,0,1.3-0.6,1.3-1.3c0-0.5-0.5-1.5-1.2-2.3c-0.3-0.3-0.4-0.5-0.4-0.7l0.1-0.3
			c0.1-0.2,0.3-0.3,0.4-0.3c0.5,0,1.7,1.3,2.8,3c6.5,10.3,8.9,12.8,13.3,14.1c4.5,1.4,5.6,2.4,5.6,5c0,1.4-0.7,3.1-2.4,5.4
			c-3.3,4.6-4.1,6.5-4.1,9.5l0,0.6c0.4-0.2,0.7-0.3,0.8-0.4c0.6-0.3,1-0.5,1.2-0.5l1.9-0.4c0.6-0.1,1.1-0.8,1.1-1.5l0-0.2l-0.2-1.7
			l0-0.2c0-0.6,0.3-1.3,0.7-1.6c0.1-0.1,0.3-0.2,0.4-0.2c0.2,0,0.5,0.2,0.6,0.5l1.2,2.6C1431.4,174.8,1431.9,175.3,1433.5,176"/>
		<path class="st8" d="M1372.4,121.1c-0.6,0-0.8,0.5-0.9,1.5l-0.1,1.4c-0.2,1.3-0.2,1.5-0.2,1.8c0,1.1,0.3,1.9,0.8,1.9
			c0.5,0,1.2-0.9,1.6-2c0.2-0.6,0.3-1.2,0.3-1.8c0-0.5-0.1-1.1-0.3-1.7C1373.3,121.5,1372.9,121.1,1372.4,121.1"/>
		<path class="st8" d="M1366.1,110l1.1,1.1c1.7,1.7,2.6,4.6,2.6,8.7c0,0.9,0,1.5-0.2,3.9c-0.1,1.3-0.2,2.3-0.2,3.1
			c0,9.4,3.1,16.5,7.1,16.5c1.3,0,2.1-0.6,3.3-2.4c0.2-0.3,0.5-0.5,0.7-0.5c0.2,0,0.4,0.2,0.4,0.6l0.2,1.7l0.2,1.4l0.1,1.6l0.2,1.4
			l0,0.2c0,0.4-0.2,0.7-0.5,0.7l-1.4,0.2c-0.7,0.1-1.4,0.4-2.1,0.8c-1.1,0.7-1.8,1.2-2,1.5l-0.8,1.7c-0.1,0.2-0.3,0.4-0.5,0.4
			c-0.4,0-1.1-0.8-2-2.1c-0.7-1.2-1.1-2.1-1.1-2.5c0-0.2,0.2-0.3,0.7-0.3h0.1l1,0.1l0.6-0.1l0.7-0.1c0.3,0,0.5-0.3,0.5-0.5
			c0-0.2-0.1-0.4-0.3-0.5l-3.4-1.4c-1.1-0.4-2-1.3-2.6-2.5c-0.9-1.8-1.4-2.9-1.4-3.4c0-0.5,0.2-0.8,0.6-0.8c0.1,0,0.3,0.1,0.5,0.2
			c0.3,0.2,0.8,0.3,1,0.3c0.3,0,0.6-0.2,0.6-0.5c0-0.2-0.3-0.6-0.6-0.8c-2.8-2.1-4.5-4.4-4.5-6.5c0-0.6,0.1-0.8,0.4-0.8l0.6,0.1
			l1,0.1h0c0.4,0,0.7-0.2,0.7-0.6c0-0.2-0.3-0.5-0.6-0.7c-0.7-0.4-1.1-0.6-1.2-0.7c-0.4-0.3-0.8-0.6-1.1-1.1c-0.1-0.2-0.6-1-1.3-2.4
			l-1.1-2c-0.4-0.8-0.6-1.2-0.7-1.3c-0.1-0.1-0.2-0.3-0.5-0.6c1-0.5,1.5-0.6,2.4-0.6c1,0,1.7,0.7,2.4,2.5c0.5,1.2,1,1.9,1.2,1.9
			c0.1,0,0.2-0.3,0.2-0.9c0-0.7-0.1-1.5-0.3-2.3c-0.2-0.7-0.3-1.3-0.2-1.7l-0.1-1.1l-0.9-0.5c-0.2-0.1-0.4-0.4-0.7-0.8
			c-0.4-0.7-0.6-1.2-0.6-1.7c0-0.3,0.1-0.8,0.2-1.4c0.8-2.9,1-4,1-5l0-0.7L1366.1,110z"/>
		<path class="st8" d="M1375.2,164.7c-1.1-0.2-1.6-0.3-2.2-0.5c-0.2-0.1-0.7-0.3-1.4-0.6c-1.2-0.5-2.1-0.8-2.9-0.8
			c-1.1,0-2.1,0.4-3.2,1.3l0.7,0.5l1.5,1.1l1.4,1.1c0.4,0.3,0.8,0.5,1.2,0.5C1371.9,167.2,1373.2,166.5,1375.2,164.7"/>
		<path class="st8" d="M1404.4,178.4c0.4-0.9,0.6-1.2,1.5-2c2.1-1.8,3.1-3.2,3.1-4.2v-0.8v-0.9c0-1,0.2-1.3,0.7-1.3
			c0.2,0,0.4,0.1,0.5,0.2l0.4,0.9c0.1,0.2,0.3,0.4,0.6,0.4c0.3,0,0.7-0.3,1.1-0.9l0.8-1.1c0.4-0.5,0.5-1,0.5-1.5
			c0-0.3-0.1-0.6-0.2-0.9c-0.1-0.1-0.2-0.5-0.5-1.2c-0.2-0.4-0.3-0.9-0.3-1.2c0-0.5,0.3-0.8,0.7-0.8c0.2,0,0.4,0.1,0.5,0.2l0.6,0.8
			c0.1,0.2,0.3,0.3,0.6,0.3c0.3,0,0.6-0.3,0.8-0.6l0.6-1.2c0.2-0.3,0.2-0.5,0.2-0.7c0-0.2-0.2-0.5-0.7-0.7l-1-0.5
			c-1.3-0.6-2.3-2.7-2.3-4.9c0-0.3,0.1-0.6,0.2-0.8l0.5-1.3c0.2-0.4,0.2-0.8,0.2-1.2c0-0.8-0.3-1.6-0.8-2.4c-0.6-0.9-0.9-1.5-1-1.6
			c-0.4-1.2-0.7-1.5-1-1.5l-0.4,0.1l-0.5,0.3l-0.8,0.5l-1,1.2l-1.1,0.5c-0.6,0.3-1.2,1.7-1.2,2.8c0,2,0.2,2.5,2.8,7
			c1,1.7,1.5,3.2,1.5,4.3c0,3.1-2.8,5.3-8.4,6.7l-3.5,0.8c-2.6,0.6-4.1,2.4-4.6,5.4c1.1-0.5,1.5-0.6,3.4-0.6l1.1,0l0.2,0
			c1,0,1.1-0.1,1.8-1c0.8-1,1.5-1.7,2.5-2.1l1.2-0.5l1-0.5l0.3-0.1c0.3,0,0.4,0.1,0.4,0.3c0,0.3-0.3,0.8-0.7,1.3
			c-0.9,1-1.2,1.8-1.2,2.9C1403.6,177.2,1403.8,177.6,1404.4,178.4"/>
		<path class="st8" d="M1394.9,166.7c0.9,0.5,1.8,1.3,2.3,2c0.7,1,0.8,1.1,1.5,1.1c0.3,0,0.7-0.1,1.1-0.2l0.7-0.1
			c1.3-0.2,1.7-0.4,1.7-0.7c0-0.2-0.1-0.4-0.4-0.6l-0.8-0.8l-0.8-0.8c-0.5-0.5-1.6-0.8-2.5-0.8
			C1396.7,165.8,1396.2,166,1394.9,166.7"/>
		<path class="st8" d="M1419.4,170.8l0.5-0.1l0.7-0.1l0.7,0.1l0.3,0c1.7,0,3.3-1.4,3.3-2.9c0-0.5-0.5-0.8-1.3-0.8
			C1421.5,167,1420.2,168.2,1419.4,170.8"/>
		<path class="st6" d="M1391.1,118.4c0.1,0.7,0.4,1.3,0.8,1.3c0.3,0,0.7-0.8,1.5-2.2c1.1-1.8,2.1-3.6,2.1-4.6c0-0.3-0.2-0.6-0.4-0.6
			l-0.1,0l-0.8,0.8c-0.6,0.5-1.1,0.8-2.6,1.4c-0.9,0.3-1.2,0.7-1.2,1.3l0.1,0.6l0.4,1.1L1391.1,118.4z"/>
		<path class="st6" d="M1386.5,114.5l1.3,0.7c0.4,0.2,0.5,0.4,0.5,0.7l-0.1,0.5c-0.2,0.6,0,1.3,0,1.6c-0.1,1.4-1.1,1.3-1.5,1.3
			c-0.3,0-0.1-0.2-0.7-0.8l-1.7-1.9c-0.5-0.6-1-1.9-1.1-3.4l0-0.2c0-0.4,0.1-0.6,0.5-0.6c0.2,0,0.6,0.2,0.8,0.4L1386.5,114.5z"/>
		<path class="st6" d="M1389.5,122.4l-0.4,0l-0.9-0.1c0,0-0.3-0.2-0.9-0.5c-0.3-0.2-0.7-0.3-1.1-0.3c-0.7,0-1.1,0.4-1.1,1
			c0,0.6,0.3,1.7,1,3.4l1,2.4c0.9,2.1,1.7,3,2.8,3c1,0,1.1-1,1.8-2.6c1.5-3.8,2.4-4.4,2.4-5.7c0-0.9-0.2-1.2-1-1.2l-0.7-0.2
			l-1.2,0.8L1389.5,122.4z"/>
		<path class="st8" d="M1389.4,124.6h-1c-0.1,0-0.3,0.1-0.4,0.2l-0.1,0.4l0.4,1.8l0.3,1.6c0.2,0.9,0.5,1.2,1.1,1.2
			c0.7,0,1.2-0.5,1.3-1.4l0.2-1.7c0.1-1.1,0.1-1.7,0.1-1.7c0-0.2-0.1-0.3-0.2-0.5c-0.1-0.1-0.2-0.2-0.4-0.2l-0.1,0L1389.4,124.6z"/>
	</g>
	<g>
		<path class="st6" d="M1567.4,142.8l0.3,1.1c0.3,1,0.5,1.8,0.6,2.4c1,4.3,1.8,5.5,3.9,5.5c1.2,0,2.2-0.7,2.5-1.7l0.5-1.5
			c0.1-0.3,0.4-0.5,0.7-0.5c0.8,0,1.3,0.9,1.3,2.7c0,0.7,0.2,1.9,0.5,3.7c0.2,1.3,0.3,2.4,0.3,3.5c0,0.8-0.1,1.2-0.5,2.2l0.1,0.9
			c0.3,1.5,0.3,2.1,0.3,2.8c0,3.3-0.2,4.2-0.9,5.5c0.3,1.2,0.4,1.8,0.4,2.7c0,0.6-0.1,1.4-0.2,2.7l-0.3,2.3l0.1,1.4
			c0.2,0.5,0.3,0.8,0.3,0.9c0,0.2-0.1,0.4-0.3,0.4l-1.5-0.6l-1.7-0.9c-0.5-0.3-0.9-0.6-1.7-1.4c-1.5,1.3-1.7,1.4-3.4,1.9
			c-2.5,0.7-3.4,1-3.9,1.4c-0.5,0.3-0.9,0.5-1,0.5c-0.6,0-1-1.1-1-2.8c0-2.4,0.1-3.7,0.5-4.6c-1.5-0.5-2.2-0.7-2.8-0.7
			c-0.2,0-0.3,0-1.1,0.1l-0.3,0c-0.2,0-0.3-0.3-0.3-0.7c0-0.7,0.5-2.2,1.2-3.5c0.9-1.7,2.5-3.1,3.7-3.3l2.7-0.5
			c1.6-0.3,2.6-1.2,2.6-2.3c0-1.1-0.7-1.8-2.4-2.4l-3.2-1.1c-1.1-0.4-2.1-0.9-3-1.4c-0.8-0.5-1.4-0.8-1.7-1
			c-0.3-0.1-0.6-0.2-0.8-0.2c-0.7,0-1.1,0.5-1.1,1.3c0,1.3,1,2.3,2.2,2.3c0.3,0,0.5-0.1,0.8-0.2c0.3-0.1,0.6-0.2,0.7-0.2
			c0.3,0,0.6,0.3,0.6,0.8c0,1.3-0.8,3.7-1.7,4.8l-0.9,1.1l-0.7,0.9c-0.3,2-2.2,4.7-4.1,6c-0.5,0.3-0.8,0.5-0.8,0.6
			c-0.1,0.1-0.3,0.4-0.6,1.1c-0.2,0.3-0.7,0.9-1.5,1.8c-0.6,0.7-1.3,1.3-1.9,1.7c-0.8,0.6-1.4,1.1-1.5,1.4l-0.8,1.3
			c-0.2,0.3-0.3,0.4-0.6,0.4c-0.7,0-1.3-0.7-1.7-1.9c-0.3-0.9-0.5-1.1-1.1-1.1c-0.3,0-0.7,0.1-1.3,0.2l-1.1,0.1h-2.7
			c-1.4,0-3.4,0.3-4.2,0.8c-0.3,0.2-0.6,0.2-0.8,0.2c-0.4,0-0.6-0.4-0.6-1.2c0-2.4,1.9-6,4.3-8.4c-0.4-1.4-1.1-2.3-2-2.6
			c-0.9-0.2-1.3-0.4-1.4-0.4c-0.1-0.1-0.2-0.2-0.2-0.4c0-0.5,0.5-1,1.7-1.5c2.2-1,2.8-1.2,4-1.2c1.4,0,2.5,0.5,4,1.6
			c2.1,1.6,2.6,1.9,3.6,1.9c1.6,0,3.2-1.5,3.2-3c0-1-0.6-2.2-2-4c-2-2.6-2.7-4.3-2.7-6.4c0-1.5,0.3-2.3,1.6-4.4
			c0.2-0.3,0.3-0.6,0.3-0.8c0-0.4-0.7-0.8-1.5-0.8c-0.8,0-1.8,0.3-3.2,0.9c-2.3,1-3.6,2-3.6,2.6c0,0.2,0.1,0.5,0.4,0.6l0.8,0.5
			c0.1,0.1,0.2,0.2,0.2,0.3c0,0.1-0.1,0.4-0.3,0.6c-0.1,0.2-0.7,0.8-1.5,2c-1.1,1.4-2.1,2.5-3.2,3.3c-0.4,0.3-0.7,0.6-0.8,0.8
			l-0.6,1.1c-0.5,0.9-2,2.5-3.3,3.4c-0.6,0.4-0.9,0.7-1.1,0.8c-0.2,0.2-0.4,0.5-0.7,1.1c-0.8,1.4-2,3.1-2.8,3.9l-2,2.1
			c-0.6,0.6-1.4,2.4-2.2,4.7c-0.6,1.8-1,2.7-1.3,2.7c-0.1,0-0.3-0.2-0.6-0.5c-1.5-1.7-2.8-2.7-3.4-2.7c-0.2,0-0.5,0.1-0.9,0.4
			c-0.6,0.4-1.3,0.6-2,0.8l-2.7,0.5c-2.3,0.4-3.2,0.9-4.2,2.3c-0.3,0.3-0.5,0.5-0.6,0.5c-0.3,0-0.5-0.4-0.5-0.9l0.1-0.7
			c0-0.1,0.1-0.8,0.4-2c0.4-2.2,0.9-3.9,1.5-4.9l1.4-2.4c0.2-0.4,0.4-0.9,0.4-1.2c0-1.7-1.6-3.2-4.1-3.6c-0.5-0.1-0.8-0.3-0.8-0.5
			c0-0.3,0.6-1,1.5-1.7c1.6-1.2,3.4-2,4.6-2c0.8,0,2,0.3,3.5,0.9l1.7,0.7c0.6,0.3,1.2,0.4,1.7,0.4c1.8,0,3.5-1.6,5.6-5.2
			c1-1.7,1.4-2.8,1.4-3.9c0-1.9-0.9-3.1-2.4-3.1c-1.2,0-2.3,0.5-3.2,1.4c-0.8,0.8-1.3,1.7-1.3,2.4l0,0.8l0,0.4
			c0,0.6-0.2,0.9-0.7,0.9c-0.6,0-1.2-0.6-2.5-2.1c-0.5-0.7-1.3-1.5-2.1-2.5c-2.3-2.7-2.8-3.8-2.9-6.5c-2.6-3.3-3.2-5.1-3.2-7
			l0.1-1.6c-1.8-2.2-2.2-3.1-2.2-5.2c0-1,0.1-1.2,0.5-2c-0.9-1.3-1.2-1.9-1.4-3l-0.4-1.6c-0.3-1.1-0.7-2-1.2-2.8
			c-0.7-1-0.8-1.1-0.8-1.4c0-0.8,0.8-1.3,2.7-1.8l0.6-0.2c-0.1-0.7-0.2-1.3-0.2-1.7c0-0.4,0.1-0.9,0.2-1.8l0.5-2.8
			c0.2-1.1,0.3-1.9,0.3-2.5c0-0.6-0.1-1.2-0.5-2.4c-0.2-0.8-0.5-1.4-0.8-1.7c-0.3-0.4-0.5-0.8-0.5-1c0-0.3,0.3-0.5,0.6-0.5
			c0.2,0,0.5,0.1,0.8,0.2c2.6,1.4,5.4,3.6,7.3,5.8c1.7,1.9,2.3,3.5,2.7,7.7c2.3,1.7,3.2,3.3,3.2,5.7c0,1.5-0.5,2.9-1.5,4.5
			c-0.9,1.4-1.4,2.2-1.5,2.4c-0.5,0.8-0.7,1.6-0.7,2.6c0,1.4,0.4,2.7,1.4,4.5c1.1,2,2.1,2.9,3.4,2.9c2,0,3.8-3.4,3.8-7.2l0-0.7v-2
			l0.2-1.8l0.1-2.2l0.1-1.8l0.1-1c0-0.7-0.2-1-2.5-3.5c-2.6-2.8-3.8-5.1-3.8-7.2c0-2,1.8-3.7,3.9-3.7c0.4,0,0.8,0.1,1.6,0.3V109
			l0.1-1.6l0.5-2c0.4-1.6,0.5-1.9,1.1-1.9l0.4,0.1l1.4,1.2l1.7,1.1l0.5,0.5c0.1-0.9,0.2-1.1,1-2.1c0.4-0.5,0.7-1,1.1-1.4l0.8-1.1
			l0.5-0.7c0.3-0.5,0.4-0.6,0.6-0.6c0.2,0,0.3,0.3,0.6,1.1c0.1,0.3,0.3,0.7,0.7,1l1,0.8c0.8,0.7,1.3,1.7,1.7,3.1
			c0.6-0.7,0.9-1,1.5-1.4l1.2-0.7c0.4-0.3,0.7-0.4,0.8-0.4c0.1,0,0.2,0.2,0.3,0.5c0.2,0.4,0.4,0.8,0.6,1.1c1,1.6,1.1,1.8,1.1,2.9
			l0,0.6v0.9c2.5,0.7,3.4,2,3.4,4.7c0,2-0.9,4.1-2.9,6.5c-1.3,1.6-1.5,2-1.5,3.2c0,5.3,4,8.6,10.8,8.7l5,0.1
			c3.3,0.1,5.3,0.4,8.3,1.4c3.5,1.2,4.7,1.4,5.7,1.4c0.8,0,1.4-0.4,1.4-0.9c0-1.1-1.8-1.9-8-3.7c-12.5-3.5-17.8-8.6-17.8-16.8
			c0-6.4,5.3-11.4,12.3-11.4c2.2,0,5.6,0.6,7.5,1.3l3.1,1.1c0.6,0.2,1.1,0.3,1.6,0.3c1.1,0,1.5-0.7,1.6-2.7c0.1-0.9,0.4-1.3,0.9-1.3
			c0.8,0,2.3,1.2,3.5,2.8c1.2,1.6,2,3.7,2,5.1c0,1.6-0.8,2.8-2.7,3.9c-1.7,2.6-3.8,3.8-6.6,3.8c-2.2,0-5.8-1.5-10.4-4.2
			c-1.8-1.1-2.6-1.4-3.6-1.4c-1.4,0-2.2,0.8-2.2,2c0,1.1,0.8,1.8,3.1,2.6c3.6,1.3,4.4,1.7,5.4,3c3.9,0.7,5.5,1.3,8,3.2
			c6.9,2.2,10.8,6.5,10.8,12c0,5-3.4,8.6-8.1,8.6C1569.9,143.3,1569.2,143.2,1567.4,142.8"/>
		<path class="st8" d="M1574.9,176c-0.2-0.7-0.2-1-0.2-1.4l0.1-1c0.2-1.4,0.2-2.1,0.2-2.9c0-0.6-0.2-1-0.5-1.5l-0.9-1.2
			c-0.6-0.8-0.8-1.4-0.8-2.1c0-0.4,0.1-0.6,0.4-0.6l0.4,0.1c0,0,0.3,0.1,0.7,0.4c0.3,0.2,0.6,0.3,0.8,0.3c0.5,0,0.7-0.7,0.7-2.1
			c0-2-0.4-2.9-1.5-3.8l-1.1-0.8c-0.2-0.1-0.3-0.4-0.3-0.6c0-0.4,0.2-0.6,0.6-0.6c0.2,0,0.5,0.1,0.9,0.2l0.8,0.2l0.3,0.1
			c0.3,0,0.4-0.2,0.4-0.6l0-0.3l-0.2-1.6c-0.2-1.7-0.5-2.3-1-2.3l-0.1,0l-2,0.4l-0.3,0c-2.4,0-5.2-2.2-5.9-4.7l-1.4-4.9
			c-0.4-1.5-1.7-3.1-3.6-4.6c-0.6-0.5-1.2-0.8-1.6-0.8l-1.4-0.2c-0.2,0-0.4-0.2-0.4-0.4c0-0.3,0.3-0.5,0.8-0.5c1.9,0,4,0.4,6.7,1.3
			c2.5,0.8,3.8,1.1,5.1,1.1c3.8,0,6.1-2,6.1-5.3c0-1.6-0.6-3.7-1.4-5c-0.7-1.1-2-2.3-3.6-3.3c-0.2-0.2-0.4-0.2-0.6-0.2
			c-0.2,0-0.4,0.2-0.4,0.4l0.1,1l0,0.1c0,0.4-0.2,0.7-0.5,0.7c-0.4,0-0.9-0.5-1.3-1.5c-1.4-3-3.6-4.7-6-4.7c-0.5,0-0.8,0.2-0.8,0.5
			c0,0.2,0.1,0.6,0.4,1c0.2,0.4,0.5,0.8,0.7,1.4c0.1,0.3,0.2,0.5,0.2,0.6c0,0.1-0.1,0.2-0.3,0.2c-0.3,0-0.9-0.3-1.3-0.7
			c-0.8-0.8-1.1-1.2-1.1-1.2l-1-1.5c-0.8-1.2-1.6-1.9-3-2.6l-1.9-1c-0.4-0.2-0.7-0.3-1-0.3c-0.2,0-0.4,0.1-0.4,0.3
			c0,0.2,0.1,0.5,0.3,0.9c0.4,0.6,0.7,1.2,0.7,1.5c0,0.3-0.2,0.5-0.4,0.5c-0.5,0-1.5-1-2.8-2.8c-1-1.3-1.4-2.8-1.4-4.3
			c0-3.2,2.5-5.7,5.6-5.7c1.6,0,3.7,0.7,5.7,1.9l3.6,2.2c1.3,0.8,3.1,1.4,4.2,1.4c0.6,0,0.8,0,2.1-0.4c0.4-0.1,0.7-0.2,1-0.4
			c0.2-0.1,0.3-0.3,0.3-0.4c0-0.3-0.2-0.4-0.7-0.5c-1.7-0.1-5.2-1.5-7.5-3c-1.3-0.8-2.2-1.3-2.5-1.4c-0.6-0.2-1-0.5-1-0.8
			c0-0.1,0.1-0.2,0.3-0.2l0.4,0.1l3.3,1.2l3.2,1.1c1.6,0.6,4,1.1,5.1,1.1c1.4,0,2.4-1,2.4-2.4c0-0.7-0.2-1.5-0.5-2.1
			c-0.5-0.9-1.1-1.7-1.3-1.7c-0.3,0-0.5,0.3-0.5,0.8l0,0.4l0.1,1c0,1-0.6,1.7-1.4,1.7c-0.3,0-0.8-0.1-1.2-0.2l-4.9-1.6
			c-4.3-1.4-5.9-1.7-8.1-1.7c-6,0-10.4,4-10.4,9.4c0,6,4.1,9.8,14.8,13.5c10.3,3.6,11.7,4.4,11.7,7.1c0,1.6-1.5,2.8-3.3,2.8
			c-0.7,0-1.3-0.1-1.8-0.2c-0.4-0.1-2.2-0.5-5.2-1.2c-3.2-0.8-5.8-1.1-9.4-1.1c-7.5,0-11.1,1.1-15.1,4.8c-0.9,0.8-1.3,1-2.3,1
			l-0.5,0l-1.2-0.1c-0.9,0-1.6,0.4-2.1,1.4l-1.2,2c-0.2,0.3-0.5,0.5-0.9,0.5c-0.8,0-1.2-0.5-1.9-2.3c-0.4-1-0.9-1.8-1.5-2.3
			l-1.6-1.4c-0.2-0.2-0.4-0.4-0.4-0.6c0-0.2,0.1-0.4,0.4-0.7c0.2-0.3,0.5-0.7,0.7-1.1c0.2-0.4,0.4-0.7,0.4-0.9l0.1-0.7
			c0.1-0.2,0.3-0.4,0.5-0.4c0.5,0,0.6,0.3,0.6,2.2c0,0.5,0.2,1.2,0.6,2l0.8,1.8c0.1,0.2,0.4,0.4,0.7,0.4c0.8,0,1.8-1.8,2-3.8
			c0.2-1.6,0.4-2.1,0.7-2.1c0.3,0,0.5,0.2,1.1,1.5c0.2,0.4,0.5,0.8,0.9,1.1c0.4,0.3,0.7,0.5,0.9,0.5l0.1,0c0.6,0,0.8-0.4,1-1.8
			l0.1-0.8l-0.2-1.1l-0.1-0.7c0-0.5,0.2-0.8,0.4-0.8c0.2,0,0.4,0.1,0.6,0.3l0.8,0.8c0.5,0.5,1,0.8,1.5,0.8c0.6,0,1.1-0.3,1.1-0.7
			c0-0.4-0.1-0.6-0.8-1.7c-0.1-0.1-0.2-0.4-0.5-1c-0.7-1.3-1-1.6-1.6-1.6l-0.8,0.1l-1,0.4c-0.3,0.1-0.5,0.2-0.6,0.2
			c-0.1,0-0.2-0.1-0.2-0.3c0-0.7,0.4-1.8,1.3-3.1c0.5-0.8,1-2.9,1.3-6l0.4-3.6c0.2-2.2,0.5-3,0.9-3c0.2,0,0.3,0.1,0.3,0.2l0.2,1.1
			v0.9c0,1.1,0.1,2,0.3,2c0.3,0,0.8-0.4,1.3-1c0.3-0.5,0.6-1,0.8-1.5c0.3-0.8,0.4-1.5,0.4-2c0-1.8-0.7-2.5-3.1-3.2
			c-0.2-0.1-0.4-0.1-0.5-0.2l-0.1-0.7v-1.3l-0.2-0.9l-0.3-0.8l-0.4-0.8l-0.6,0.4c-1.5,1-1.9,1.3-2.4,1.9c-0.7,0.9-0.9,1.1-1.2,1.1
			c-0.2,0-0.4-0.1-0.4-0.3l0.3-1.3l0-0.2c0-1.7-0.9-3.3-2.6-4.5l-0.5,0.6l-0.5,0.8l-0.9,1.1c-0.5,0.6-0.8,1.5-0.8,2.2l0,0.3l0,0.3
			c0,0.6-0.1,0.8-0.4,0.8l-0.2-0.1l-0.6-0.8l-0.8-0.9l-1.4-0.8l-0.7-0.5c-0.7,1.6-0.8,1.8-0.8,3.8l0,0.6c0,0.7-0.2,1.1-0.6,1.1
			c-0.2,0-0.5-0.1-0.9-0.4c-0.3-0.2-0.7-0.3-1.1-0.3c-1.1,0-1.9,0.9-1.9,2.2c0,1.4,0.3,2.3,1.2,3.9c0.6,1,1.4,1.8,1.7,1.8
			c0,0,0.1-0.7,0.2-1.6l-0.2-1.3l0-0.6c0-0.5,0.2-0.8,0.5-0.8c0.4,0,0.7,0.5,1,1.7l0.6,2.8l0.6,3.6c0.2,1,0.5,2,0.9,3
			c0.6,1.4,1,2.3,1.3,2.7c0.8,1.1,0.9,1.2,0.9,1.5c0,0.2-0.2,0.4-0.3,0.4c-0.2,0-0.4-0.1-0.7-0.2c-0.3-0.1-0.6-0.2-0.9-0.3l-0.6-0.1
			c-1.3,0-1.5,1-1.5,6c0,3.1,0.7,7.3,1.5,9.3l1.6,4c0.3,0.6,0.4,1.3,0.4,1.9c0,5.5-7.5,14.4-15.4,18.2c-3.1,1.5-4,3-4.2,7.2
			c1.3-0.6,1.8-0.8,2.7-1.1c2.2-0.6,2.7-0.9,3-2l0.3-1c0.1-0.4,0.4-0.6,2-1.4c0.6-0.3,1-0.6,1.2-1c0.4-0.7,0.7-1,0.9-1
			c0.2,0,0.3,0.1,0.3,0.4l0,0.1l-0.8,2.2l-0.1,0.5c0,1.6,0.9,2.9,2.5,3.7c0.1-0.4,0.2-0.7,0.2-0.9c0.3-1.2,0.5-1.9,0.8-2.3l1.4-2.1
			c0.5-0.8,0.6-1.3,0.6-3.2l-0.1-2.4l0-0.6c0-0.4,0.2-0.6,0.5-0.6c0.3,0,0.5,0.1,0.5,0.2l0.2,1.4c0.1,0.3,0.4,0.5,0.7,0.5
			c0.7,0,1.7-0.9,2.7-2.7c0.4-0.7,0.5-1.2,0.5-1.8c0-0.5-0.1-1.5-0.2-2.4l0-0.4c0-0.4,0.2-0.6,0.6-0.6c0.2,0,0.3,0.1,0.4,0.1
			l0.5,1.8c0.2,0.6,0.6,1,1,1c1.2,0,2.4-2.4,2.5-4.9c0.1-1.6,0.3-2.2,0.8-2.2c0.2,0,0.3,0.1,0.4,0.2l0.3,1c0.1,0.4,0.3,0.6,0.5,0.6
			c0.2,0,0.6-0.3,1.1-0.9c0.3-0.3,0.5-0.7,0.7-1c0.1-0.3,0.2-0.5,0.2-0.8c0-0.4-0.1-0.5-0.7-0.9c-0.6-0.4-0.8-1-0.8-1.6
			c0-1.1,0.5-2.3,1.8-4.6c1.2-2.1,1.4-2.4,1.7-2.4c0.3,0,0.5,0.3,0.5,0.6c0,0.2-0.1,0.5-0.2,0.7c-0.2,0.4-0.3,0.7-0.3,0.9
			c0,0.3,0.3,0.5,0.6,0.5c0.4,0,0.8-0.2,1.4-0.5c0.3-0.2,1-0.5,2-0.8c1.4-0.5,2.3-0.8,2.6-0.9c0.5-0.2,1-0.2,1.6-0.2
			c0.4,0,0.9,0.1,1.3,0.2c0.9,0.2,1.5,0.3,1.7,0.3c0.7,0,1.2-0.5,1.2-1.2c0-0.3-0.2-0.9-0.5-1.3c-0.4-0.6-0.6-1-0.7-1.1
			c-0.3-0.4-0.5-0.5-0.5-0.7l0.1-0.3c0.1-0.2,0.3-0.3,0.4-0.3c0.6,0,1.8,1.2,2.8,3c5.9,9.7,8.8,12.8,13.2,14.1
			c4.6,1.4,5.6,2.3,5.6,5.1c0,1.4-0.8,3.2-2.4,5.4c-3,4.2-4.1,6.7-4.1,9.5l0,0.6c0.4-0.2,0.7-0.3,0.8-0.4c0.6-0.3,1-0.5,1.2-0.5
			l1.9-0.4c0.6-0.1,1.1-0.8,1.1-1.6l0-0.1l-0.1-1.7l0-0.3c0-0.9,0.5-1.7,1-1.7c0.2,0,0.5,0.2,0.6,0.5l1.2,2.6
			C1572.8,174.8,1573.3,175.3,1574.9,176"/>
		<path class="st8" d="M1512.8,124l-0.1,1.2l0,0.7c0,1.2,0.2,1.8,0.7,1.8c0.5,0,1.3-0.9,1.6-2c0.2-0.6,0.4-1.5,0.4-2.1
			c0-0.4-0.1-0.7-0.4-1.4c-0.3-0.8-0.7-1.2-1.1-1.2C1513.2,121.1,1512.9,121.9,1512.8,124"/>
		<path class="st8" d="M1507.6,110l1.1,1.1c1.5,1.6,2.6,4.7,2.6,7.8l0,1.3l-0.2,3.6l-0.1,3c0,9.9,2.9,16.7,7.1,16.7
			c1.1,0,2.4-1,3.3-2.4c0.2-0.3,0.4-0.5,0.6-0.5c0.2,0,0.4,0.2,0.4,0.6l0.2,1.7l0.1,1.4c0.1,0.7,0.1,1.2,0.2,1.6
			c0.1,0.7,0.2,1.2,0.2,1.5c0,0.8-0.2,0.8-2,1.1c-0.7,0.1-1.4,0.4-2.1,0.8c-1.2,0.8-1.9,1.3-2,1.5l-0.8,1.7
			c-0.1,0.2-0.3,0.4-0.5,0.4c-0.4,0-1-0.7-1.9-2.1c-0.8-1.3-1.1-2.1-1.1-2.5c0-0.2,0.2-0.3,0.7-0.3l0.2,0l0.9,0.1l0.7-0.1l0.6-0.1
			c0.3-0.1,0.5-0.3,0.5-0.6c0-0.2-0.1-0.4-0.3-0.4l-3.4-1.4c-0.8-0.3-1.7-1.2-2.5-2.5c-0.9-1.4-1.4-2.6-1.4-3.3
			c0-0.5,0.2-0.9,0.6-0.9c0.1,0,0.3,0.1,0.6,0.2c0.4,0.2,0.7,0.3,0.9,0.3c0.1,0,0.3-0.1,0.4-0.2c0.1-0.1,0.2-0.2,0.2-0.4
			c0-0.2-0.2-0.5-0.6-0.8c-2.8-2-4.6-4.4-4.6-6.5c0-0.6,0.1-0.9,0.4-0.9l0.6,0.1c0.4,0.1,0.9,0.2,1.1,0.2c0.4,0,0.7-0.2,0.7-0.6
			c0-0.2-0.3-0.5-0.7-0.7c-1.9-0.9-2.4-1.5-3.6-4.2c-0.9-2.1-1.4-2.9-2.2-3.9c1-0.5,1.5-0.6,2.4-0.6c1,0,1.7,0.7,2.4,2.5
			c0.5,1.2,1,1.9,1.3,1.9c0.1,0,0.2-0.2,0.2-0.9c0-0.8-0.1-1.5-0.3-2.3c-0.2-0.7-0.3-1.3-0.2-1.7l-0.2-1.1l-0.8-0.5
			c-0.8-0.4-1.3-1.4-1.3-2.5c0-0.5,0-0.9,0.2-1.4c0-0.1,0.2-0.7,0.5-1.7c0.3-1.2,0.5-2.5,0.5-3.2l0-0.7L1507.6,110z"/>
		<path class="st8" d="M1516.6,164.7c-1.6-0.3-1.8-0.3-3.6-1.1c-1.2-0.6-2-0.8-2.8-0.8c-1.2,0-2.1,0.4-3.2,1.3l0.7,0.5l1.5,1.1
			l1.4,1.1c0.4,0.3,0.8,0.5,1.3,0.5C1513.3,167.2,1514.6,166.6,1516.6,164.7"/>
		<path class="st8" d="M1545.8,178.4c0.4-0.9,0.6-1.2,1.5-2c2.1-1.8,3.1-3.2,3.1-4.2v-0.8v-0.9c0-1,0.2-1.3,0.7-1.3
			c0.2,0,0.4,0.1,0.5,0.2l0.4,0.9c0.1,0.2,0.3,0.3,0.6,0.3c0.5,0,0.9-0.4,1.9-1.9c0.4-0.7,0.6-1.1,0.6-1.5c0-0.3-0.1-0.6-0.2-0.9
			c-0.1-0.1-0.2-0.5-0.5-1.2c-0.2-0.4-0.3-0.9-0.3-1.2c0-0.5,0.3-0.8,0.7-0.8c0.2,0,0.4,0.1,0.5,0.2l0.6,0.8
			c0.1,0.2,0.2,0.3,0.4,0.3c0.3,0,0.8-0.3,1-0.6l0.6-1.2c0.2-0.3,0.2-0.5,0.2-0.7c0-0.3-0.2-0.5-0.6-0.7l-1.1-0.5
			c-1.2-0.5-2.3-2.7-2.3-4.7c0-0.2,0.1-0.6,0.2-1l0.5-1.3c0.2-0.4,0.2-0.9,0.2-1.3c0-0.7-0.2-1.5-0.8-2.3c-0.5-0.8-0.8-1.4-0.9-1.6
			c-0.4-1.1-0.7-1.5-1.1-1.5c-0.3,0-0.5,0.1-1,0.4l-0.8,0.5l-1.1,1.2l-1.1,0.5c-0.6,0.3-1.2,1.7-1.2,2.8c0,1.6,0.4,2.5,2.8,6.9
			c1,1.9,1.5,3.3,1.5,4.3c0,3.1-3.1,5.6-8.3,6.7c-6.1,1.3-7.5,2.3-8.2,6.2c1.1-0.5,1.5-0.6,3.4-0.6l1.1,0l0.2,0c1,0,1.1-0.1,1.8-1
			c0.7-1,1.5-1.7,2.5-2.1l1.2-0.5l1-0.5l0.3-0.1c0.3,0,0.4,0.1,0.4,0.3c0,0.3-0.2,0.7-0.7,1.3c-0.7,0.9-1.2,1.8-1.2,2.5
			C1545,177,1545.2,177.5,1545.8,178.4"/>
		<path class="st8" d="M1536.3,166.7c0.9,0.5,1.8,1.3,2.3,2c0.7,1,0.8,1.1,1.5,1.1c0.3,0,0.7-0.1,1.1-0.2l0.7-0.1
			c1.3-0.2,1.7-0.4,1.7-0.8c0-0.2-0.1-0.4-0.3-0.6l-0.9-0.8l-0.8-0.8c-0.5-0.5-1.6-0.8-2.4-0.8
			C1538.2,165.8,1537.4,166,1536.3,166.7"/>
		<path class="st8" d="M1560.8,170.8l0.5-0.1l0.8-0.1l0.6,0.1l0.4,0c0.8,0,1.2-0.1,1.5-0.3c0.5-0.4,0.9-0.9,1.4-1.7
			c0.2-0.3,0.3-0.6,0.3-0.9c0-0.5-0.5-0.8-1.3-0.8C1562.9,167,1561.6,168.2,1560.8,170.8"/>
		<path class="st6" d="M1532.6,118.4c0.1,0.7,0.5,1.3,0.8,1.3c0.3,0,0.8-1.1,1.6-2.4c1.1-1.8,2-3.3,2-4.3c0-0.3-0.2-0.6-0.4-0.6
			l-0.1,0l-0.8,0.8c-0.5,0.4-1.5,1-2.5,1.4c-1,0.3-1.2,0.6-1.2,1.3l0.1,0.6l0.6,1.3L1532.6,118.4z"/>
		<path class="st6" d="M1525.9,112.8c-0.3-0.2-0.6-0.4-0.8-0.4c-0.3,0-0.5,0.2-0.5,0.5l0,0.2c0.1,0.4,0.2,0.8,0.3,1.3
			c0.4,1.2,0.8,1.9,1,2.1l1.1,1.9c0.5,0.6,1.3,0.9,1.6,1l0.1,0c0.2,0,0.4-0.1,0.4-0.3l0.2-1.5l0.4-1.4l0-0.3c0-0.4-0.2-0.7-0.6-0.9
			l-1.3-0.7L1525.9,112.8z"/>
		<path class="st6" d="M1530.9,122.4l-0.4,0l-0.9-0.1c0,0-0.3-0.2-0.9-0.5c-0.3-0.2-0.7-0.3-1.1-0.3c-0.7,0-1.1,0.4-1.1,1.2
			c0,0.6,0.3,1.7,1,3.2c0.3,0.6,0.6,1.4,1,2.4c0.8,2.1,1.7,3,2.8,3c1,0,1.8-0.8,2.4-2.4l0.8-3.4c0.4-1.1,1.4-1.5,1.4-2.3
			c0-0.9-1-1.7-1.8-1.7l-0.4,0.1l-1.1,0.8L1530.9,122.4z"/>
		<path class="st8" d="M1530.8,124.6h-0.9c-0.1,0-0.3,0.1-0.4,0.2c-0.1,0.2-0.2,0.4-0.2,0.4l0.4,1.8l0.3,1.6c0.2,0.9,0.3,1.2,1,1.2
			c0.7,0,1.4-0.5,1.5-1.4l0.2-1.7c0.1-1.1,0.2-1.7,0.2-1.7c0-0.2-0.1-0.3-0.2-0.5c-0.1-0.1-0.3-0.2-0.4-0.2l-0.1,0L1530.8,124.6z"/>
	</g>
	<g>
		<path class="st6" d="M1427.4,285.9c0.7,1.7,0.9,2.5,1,3.6l0.1,3.2c0.1,3.2,1.2,4.8,3.2,4.8c0.7,0,1.3-0.2,1.7-0.5l0.8-0.8l0.3-0.1
			c0.5,0,0.8,0.3,0.8,1l-0.1,1.2c-0.1,0.6,0,1.7,0.3,3.5c0.2,1,0.2,2.1,0.2,3.1c0,1.6-0.1,2.2-0.7,3.7c0.5,1.5,0.8,3.2,0.8,4.6
			c0,1.6-0.3,2.8-0.9,3.7c0.3,1.3,0.4,1.8,0.4,2.6c0,0.7-0.1,1.7-0.3,2.9c-0.3,1.6-0.4,2.8-0.3,3.6l0,0.2c0,0.5-0.1,0.7-0.4,0.7
			c-0.3,0-0.6-0.2-0.9-0.6c-0.5-0.6-0.8-0.8-1.1-0.8c-0.5,0-0.7,0.3-1.5,2.5c-0.2,0.7-0.9,1.7-1.8,2.8c-0.8,0.9-1.2,1.6-1.4,2.2
			c-0.2,0.9-0.4,1.4-0.5,1.6c-0.1,0.2-0.3,0.4-0.5,0.4l-0.1,0c-1.2,0-2.7-2.7-4.1-7.7c-0.4-1.4-0.9-2.1-1.7-2.1
			c-0.5,0-1.1,0.4-1.3,0.9l-0.5,1.1c-0.1,0.2-0.2,0.3-0.4,0.3c-0.6,0-1.5-1.1-2.1-2.5c-0.5-1.2-0.7-2.4-0.7-3.5c0-2.4,1.7-4.1,7-7.1
			c2.3-1.3,3.2-2.9,3.2-5.9c0-2.4-0.7-3.7-2.7-5.2c-1.6-1.2-2.5-1.7-3.4-1.7c-0.7,0-1.3,0.5-1.3,1.1c0,0.7,0.4,1.1,1.4,1.5
			c1.2,0.4,1.7,0.8,1.7,1.4c0,0.5-0.5,1.5-1.3,2.7c-0.9,1.3-1.2,1.7-2.4,2.5c-0.4,2.1-1.3,3.4-3.6,4.9c-0.5,1.3-0.7,1.8-1.5,2.8
			l-1.6,2.1c-0.5,0.6-1.1,1.8-1.1,2.3c-0.2,1.2-0.3,1.4-0.7,1.4c-0.6,0-1.8-1.1-3.1-2.7c-0.7-0.9-0.9-1.4-1-2.5
			c-0.8,0.6-1,0.7-2.6,0.9c-0.9,0.1-1.6,0.3-2,0.5c-1.2,0.6-1.5,0.8-1.8,0.8c-0.3,0-0.4-0.2-0.4-0.7l-0.1-1.7c0-2.3,0.9-5,2.3-6.7
			c-1.3-1.2-2.7-1.9-3.7-2c-0.5,0-0.6-0.1-0.6-0.3c0-0.3,0.3-0.9,0.7-1.4c0.6-0.7,1-1.2,1.4-1.5c1.1-0.9,2.9-1.6,4.4-1.6
			c1,0,2.4,0.4,4.3,1.1c0.7,0.3,1.3,0.4,1.8,0.4c0.8,0,1.3-0.5,1.3-1.5c0-1.4-0.7-3.5-2.2-7c-1-2.3-1.5-3.9-1.5-5
			c0-2.6,1.2-5.4,2.8-6.1c-0.7-0.4-1.1-0.5-1.7-0.5c-0.8,0-1.4,0.2-2.3,0.8c-1.1,0.7-1.7,1.2-1.7,1.6c0,0.1,0.2,0.4,0.6,0.7
			c0.6,0.4,0.7,0.6,0.7,1.1c0,1.9-1.5,4.4-3.7,6c-0.5,2.7-1.7,4.3-4.1,5.4c-0.3,1.4-0.5,1.9-1.7,3.5c-2,2.8-2.4,3.7-2.8,5.2
			c-0.2,0.8-0.4,1.2-0.6,1.2c-0.3,0-1-0.5-1.7-1.3c-0.6-0.7-1-1.2-1.2-1.5c-0.3-0.5-0.5-1-0.8-2.4c-0.6,0.2-0.7,0.2-1.1,0.2l-1.1,0
			l-0.8,0c-1.7,0-3.4,0.4-4.3,0.9c-0.3,0.2-0.6,0.3-0.7,0.3c-0.5,0-0.9-1-0.9-2.3c0-2.7,0.8-5,2.5-7.5c-0.7-0.5-0.9-0.7-1.4-1.4
			c-0.3-0.3-0.5-0.5-0.6-0.5l-0.8-0.5c-0.3-0.2-0.5-0.3-0.5-0.5c0-0.4,1.1-1.5,2.4-2.3c1.5-0.9,2.6-1.4,3.7-1.4
			c1.2,0,1.9,0.3,3.5,1.7c1.1,0.9,1.8,1.4,2.3,1.4c0.4,0,0.8-0.3,1.1-0.7c0.3-0.3,0.4-0.7,0.4-1.1c0-1.5-1.7-3.9-3.6-5.2
			c-1.4-0.9-3-1.4-4.5-1.4c-2.1,0-3.9,1.1-4.7,2.7l-0.8,1.7c-0.2,0.4-0.4,0.6-0.7,0.6c-0.5,0-0.7-0.2-2.5-2.2l-2-2.3
			c-0.6-0.7-1-1.4-1.2-2c-0.2-0.6-0.3-0.9-0.4-1c-0.1-0.1-0.3-0.3-0.8-0.6c-1.5-1.1-2.6-3.2-3.3-6.3c0-0.2-0.1-0.6-0.2-1
			c-1.9-2.3-3-5.1-3-7.5c0-0.3,0-0.5,0.2-1c-1.1-1.1-1.2-1.3-2.1-4.2c-0.6-2.1-1-2.9-1.7-3.9c-0.2-0.3-0.3-0.5-0.3-0.6
			c0-0.4,0.6-0.7,1.7-0.9c1-0.2,1.1-0.2,1.5-0.2l1.5,0.1l-0.1-2.1c0-1.2,0.1-2,0.4-3.5c0.1-0.7,0.2-1.2,0.2-1.6
			c0-0.1-0.1-0.6-0.2-1.3c-0.1-0.6-0.2-0.9-0.2-1.1c-0.1-0.3-0.2-0.5-0.2-0.6c0-0.2,0.2-0.4,0.5-0.4c0.2,0,0.5,0.1,1,0.3
			c1.3,0.6,2.4,1.3,3.3,2c2.6,2,4.7,5.2,4.7,7.1l0,0.6c-0.1,0.7-0.2,1.1-0.2,1.1c0,0.3,0.2,0.8,0.5,1.2l0.8,1.1c0.7,1,1.2,2.2,1.2,3
			c0,0.7-0.1,1-1.4,2.8c-0.9,1.3-1.3,2.3-1.3,3.4c0,1.4,0.5,3.1,1.5,4.8c0.9,1.6,1.9,2.4,2.9,2.4c1.7,0,2.4-1.5,2.7-5.5
			c0.1-2.1,0.3-4,0.6-5.8l0.1-1c0-0.5-0.1-0.7-0.8-1.5l-2.3-2.6c-2.2-2.5-2.8-3.8-2.8-5.7c0-2.1,1.4-3.5,3.4-3.5l0.9,0.1l0-0.6
			c0-0.5,0.1-1.2,0.4-2.1c0.5-1.6,1.1-2.9,1.4-2.9c0.1,0,0.4,0.1,0.7,0.4c0.1,0.1,0.6,0.3,1.4,0.5c0.4,0.2,0.7,0.3,1.5,0.8
			c0.4-1.3,0.6-1.9,1.2-2.6c1-1.3,2.1-2.3,2.5-2.3c0.2,0,0.7,0.3,1.2,0.9l1.4,1.5c0.2,0.2,0.5,0.7,0.8,1.4l0.3,0.7
			c0.4-0.2,0.7-0.4,0.9-0.5c0.6-0.4,1-0.6,1.2-0.7c0.9-0.4,1.4-0.7,1.4-0.7c0.4-0.3,0.7-0.4,0.8-0.4c0.3,0,0.4,0.5,1,3
			c0.4,1.7,0.4,2.1,0.5,3.3c2.4,0.3,3.6,1.7,3.6,4.3c0,2.4-1.2,4.9-3.8,7.6c-0.7,0.8-0.9,1.1-0.9,1.8c0,6.7,2.3,8.8,10.7,9.7
			c5.2,0.5,6.7,0.9,12.9,2.7c3.3,1,5.1,1.4,6.3,1.4c1.4,0,2.2-0.5,2.2-1.4c0-1.4-1-1.8-7.1-3.1c-14-3-19.6-7.8-19.6-17
			c0-6.6,4.9-11.6,11.5-11.6c2.9,0,5.5,0.9,9.6,3.3c3.8,2.2,4.6,2.6,5.5,2.6c1,0,1.4-0.7,1.4-2.3c0-1.1,0.3-1.6,1-1.6
			c0.6,0,1.5,0.6,2.4,1.6c1.3,1.5,1.7,2.2,1.7,4.3c0,2.7-1.5,4.5-4.3,5.3c-0.3,0.3-0.5,0.6-0.7,0.8c-1.6,1.8-2.9,2.3-5.4,2.3
			c-2.2,0-4.9-0.9-6.7-2.2l-3.6-2.6c-1.6-1.1-2.7-1.6-3.8-1.6c-1.6,0-2.5,0.9-2.5,2.5c0,1.5,1,2.8,2.7,3.3l3.4,1.1
			c1.2,0.4,1.8,0.6,3.3,1.4c0.8-0.1,1.2-0.2,1.7-0.2c2.1,0,4.4,0.6,6.4,1.6c0.6,0.3,1.1,0.5,1.4,0.6l1.9,0.5c4.3,1.2,7.8,6,7.8,10.7
			c0,5.4-3.5,8.7-9.1,8.7L1427.4,285.9z"/>
		<path class="st8" d="M1426.2,330.9l0.5-0.9l1.1-1.1c0.9-1,1.4-2.3,1.4-3.9c0-0.8-0.1-1.6-0.4-2.4c-0.2-0.6-0.3-1.1-0.3-1.3
			c0-0.5,0.4-0.9,0.7-0.9c0.2,0,0.4,0.1,0.6,0.4l1.1,1.3c0.7,0.8,0.9,0.9,1.8,1.1l0.1-1.1l0.1-1.2c0-1.8-0.7-3.8-1.7-5.1
			c-0.6-0.8-0.9-1.2-0.9-1.5c0-0.3,0.2-0.5,0.4-0.5c0.1,0,0.2,0.1,0.3,0.2c0.7,0.5,1.1,0.8,1.3,0.8c0.4,0,0.7-0.9,0.7-1.9
			c0-1.4-0.6-3.1-1.5-4.2c-0.5-0.6-0.8-1-0.9-1.1c-0.1-0.1-0.2-0.3-0.2-0.4c0-0.3,0.3-0.6,0.7-0.6c0.3,0,0.5,0.1,0.9,0.4
			c0.2,0.1,0.4,0.2,0.6,0.2c0.6,0,0.8-0.8,0.8-3.1l0-0.9l-0.1-1.4c-0.1-1.6-0.2-1.9-0.9-1.9h-0.6c-3.7,0-5.4-2.3-6.4-8.6
			c-0.7-4.6-2.4-7.8-4.5-8.5c-1.2-0.4-1.7-0.7-1.7-1c0-0.2,0.3-0.4,0.7-0.4c0.3,0,0.9,0.2,1.4,0.4c3,1.2,5.6,1.8,7.8,1.8
			c3.6,0,6.5-2.7,6.5-6.1c0-2.6-1.2-5.2-3.4-7.4c-0.6-0.6-1.3-1-1.9-1.1l-0.1,0l-0.4,0.1l0.2,1.1l0.3,0.8l0.1,0.3
			c0,0.2-0.2,0.3-0.4,0.3c-0.2,0-0.4-0.1-0.6-0.3l-1.4-2c-1.1-1.6-3.5-3-5.2-3c-0.6,0-1,0.3-1,0.7c0,0.2,0.2,0.6,0.5,0.9
			c0.4,0.4,0.7,1,0.7,1.2l-0.1,0.3c-0.1,0.2-0.2,0.3-0.3,0.3l-0.1,0c-0.4,0-0.5-0.2-2.2-2c-1.3-1.5-4.1-3-5.6-3
			c-0.2,0-0.4,0.1-0.6,0.2c-0.1,0.1-0.2,0.2-0.2,0.3c0,0.2,0.2,0.5,0.5,0.8c0.5,0.4,0.8,0.9,0.8,1.2c0,0.1-0.2,0.3-0.4,0.3
			c-0.4,0-1.4-0.6-3.2-2.1c-2.8-2.2-4.1-4.3-4.1-6.7c0-2.9,2.1-5.2,4.8-5.2c1.6,0,3.7,0.8,5.1,1.8l3.7,2.8c1.7,1.3,3.8,2,6,2
			c0.5,0,0.9-0.1,1.3-0.3c0.3-0.2,0.5-0.4,0.5-0.5c0-0.1-0.3-0.2-0.7-0.3c-1.3-0.3-2.4-0.8-3.2-1.4l-3.8-2.9c-1.4-1.1-2.4-1.8-3-2
			c-2-1.1-2.4-1.3-2.4-1.5c0-0.1,0.2-0.2,0.4-0.2c0.2,0,0.4,0.1,0.7,0.2l2,0.8c0.6,0.3,1.7,0.9,3.2,1.9c4.1,2.7,6.1,3.6,8.5,3.6
			c2.3,0,3.9-1.6,3.9-3.8c0-0.4-0.1-0.9-0.3-1.3l-0.4-0.8c-0.1-0.3-0.4-0.5-0.5-0.4l-0.2,0.3l-0.2,1.6c0,0.1-0.1,0.2-0.2,0.5
			c-0.1,0.3-0.3,0.6-0.5,0.8c-0.4,0.4-0.8,0.5-1.4,0.5c-1.2,0-2.5-0.6-6-2.9c-3.6-2.3-6.8-3.5-9.4-3.5c-5.5,0-9.9,4.4-9.9,9.8
			c0,7.6,4.6,11,19.2,14.2c5.5,1.2,8,2.8,8,5.3c0,2.2-1.8,3.7-4.7,3.7c-0.9,0-1.6-0.1-2.1-0.2c-0.5-0.1-3.1-0.8-7.8-2.1
			c-3.3-0.9-6.9-1.4-10.1-1.4c-5.7,0-9.5,1.7-12.2,5.4c-0.3,0.4-0.6,0.7-0.8,0.7c-0.2,0-0.4-0.1-0.6-0.3l-1.1-0.8
			c-0.7-0.6-1.9-1-2.7-1c-0.6,0-1.1,0.2-1.6,0.7c-0.4,0.3-0.7,0.5-0.8,0.5c-0.4,0-1.2-1-1.8-2.2c-0.9-1.8-1.3-3.5-1.3-5.2
			c0-0.8,0.2-1.3,0.6-1.3c0.3,0,0.5,0.2,0.6,0.6l0.6,2.2c0.3,1.2,1,2.2,1.5,2.2c0.2,0,0.6-0.3,1.1-0.9c0.3-0.3,0.5-0.7,0.6-1.1
			c0.5-1.4,0.6-1.6,1-1.6c0.4,0,0.7,0.3,1,1.7c0.1,0.3,0.1,0.6,0.5,1.3c0.3,0.6,0.6,1,0.9,1.4c0.2,0.2,0.5,0.4,0.8,0.4
			c0.7,0,1.3-1.1,1.3-2.3l0-0.3l-0.1-1.4c0-0.5,0.1-0.7,0.4-0.7c0.2,0,0.3,0.1,0.5,0.4c0.3,0.4,0.8,0.8,1.3,1.1
			c0.5,0.3,0.8,0.4,1.1,0.4c0.2,0,0.5-0.1,0.7-0.4c0.2-0.2,0.3-0.4,0.3-0.6c0-0.2-0.3-0.6-1.1-1.4c-0.4-0.4-0.9-1.5-1.5-3
			c-0.2-0.6-0.5-1-0.7-1c-0.1,0-0.2,0.1-0.5,0.2l-1,0.4l-0.7,0.3l-0.3,0.1c-0.3,0-0.6-0.2-0.6-0.5c0-0.3,0.7-1.1,1.5-1.8
			c0.6-0.5,1-1.2,1-2c0-1.3,0.3-2.3,0.5-2.3l0.2-2.7c0.1-1.3,0.7-3.8,1.1-5.2c0.1-0.3,0.2-0.5,0.3-0.5c0.2,0,0.4,0.6,0.4,1.2l0,0.4
			l0,0.8c0,1,0.2,1.5,0.5,1.5c0.3,0,0.7-0.5,1-1.3l0.7-1.7c0.2-0.5,0.3-1,0.3-1.4c0-1.5-0.9-2.5-2.1-2.5l-0.5,0.1
			c-0.3,0.1-0.5,0.2-0.5,0.2c-0.4,0-0.7-0.4-0.7-1l0.1-1.1l-0.1-1.5l-0.3-1.6l-0.1-0.8l-0.7,0.4l-0.8,0.7l-1.2,1l-1,0.8
			c-0.2,0.2-0.4,0.2-0.6,0.2c-0.6,0-0.7-0.2-0.7-1.3V249c0-1-0.4-1.7-2-3.5c-0.1-0.1-0.2-0.2-0.4-0.5l-0.3,0.5l-0.8,1.4l-0.8,2.1
			l-0.2,1.4c0,0.4-0.2,0.7-0.3,0.7c-0.2,0-0.4-0.2-0.7-0.5c-1.2-1.3-1.5-1.6-3.3-2.2l-0.1,0.5c-0.3,0.9-0.4,1.4-0.5,1.6l-0.1,1.4
			v0.6l0,0.5c0,0.4-0.2,0.7-0.4,0.7l0,0c0,0-0.2-0.1-0.5-0.4c-0.2-0.2-0.5-0.2-0.9-0.2c-1.4,0-2.3,0.8-2.3,2c0,0.9,0.3,1.6,1.7,3.7
			c0.6,0.9,1.3,1.7,1.6,1.7c0.2,0,0.3-0.5,0.3-1.1l-0.1-0.9c-0.1-0.4-0.2-0.8-0.2-1.2c0-0.4,0.1-0.7,0.4-0.7c0.7,0,1.4,2,1.7,4.7
			l0.3,2.8c0.1,1,0.4,2,0.9,3c0.7,1.4,1.4,2.4,2,2.8c0.7,0.5,1.2,1,1.2,1.3c0,0.2-0.2,0.5-0.4,0.5c0,0-0.5-0.2-1.5-0.5l-0.6-0.1
			c-1.5,0-2,0.9-2,3.5c0,3.2,2.1,7.7,4.5,9.6l3.5,2.8c1.8,1.4,3.1,3.8,3.1,5.5c0,2.2-2.4,4.4-6.6,5.9l-2.5,0.9
			c-1.9,0.7-2.7,2-3.5,5.6c1-0.3,1.4-0.4,2.1-0.4l0.3,0l1.1,0c1,0,1.8-0.6,1.8-1.5v-0.7c0-0.2,0.3-0.5,0.7-0.7
			c0.7-0.3,1-0.5,1.1-0.5l0.8-0.7c0.1-0.1,0.3-0.2,0.4-0.2c0.2,0,0.4,0.2,0.4,0.5c0,0.2-0.1,0.4-0.2,0.7c-0.3,0.7-0.4,1.6-0.4,2.6
			c0,1.9,0.3,2.9,1.2,4.2c0.1-0.5,0.2-0.8,0.2-1c0.2-0.4,0.6-1.1,1.3-2c1.1-1.6,2-3.6,2-4.6l0-0.3l-0.2-1.7c0-0.3,0.1-0.6,0.4-0.8
			c0.2-0.1,0.3-0.2,0.5-0.2c0.3,0,0.5,0.2,0.8,0.8c0.2,0.4,0.4,0.7,0.5,0.7c0.3,0,0.8-0.7,1.1-1.5c0.3-0.6,0.4-1.1,0.4-1.6
			c0-0.3-0.1-0.6-0.2-1c-0.2-0.4-0.2-0.7-0.2-0.9c0-0.2,0.1-0.3,0.3-0.5c0.1-0.1,0.3-0.2,0.4-0.2c0.1,0,0.3,0.1,0.4,0.2l0.7,0.5
			c0.2,0.2,0.4,0.2,0.6,0.2c0.3,0,0.7-0.3,1.1-0.8c0.7-1,1.1-1.8,1.1-2.2c0-0.2-0.1-0.3-0.5-0.6c-1.5-1.1-2.5-2.7-2.5-4.1
			c0-0.3,0.1-0.7,0.2-1.1l0.8-2c0.4-1,0.6-1.6,0.6-1.6l0.2-0.1c0.3,0,0.4,0.2,0.4,0.6c0,0.2-0.1,0.5-0.2,0.9
			c-0.2,0.5-0.3,1.1-0.3,1.4c0,0.5,0.3,0.8,0.8,0.8c0.4,0,0.8-0.1,1.3-0.3c2.3-1,4.1-1.5,5.2-1.5c1,0,1.7,0.2,2.8,1
			c0.3,0.2,0.5,0.3,0.7,0.3c0.1,0,0.3-0.1,0.4-0.3c0.1-0.1,0.2-0.3,0.2-0.4c0-0.3-0.2-0.6-0.5-1c-0.4-0.5-0.5-0.8-0.5-1.1
			c0-0.2,0.2-0.4,0.4-0.4c1.2,0,3.1,3.8,4.8,9.7c1.4,4.7,1.8,5.2,6.3,7.7c3.8,2.1,5.3,4.3,5.3,7.7c0,3.4-0.9,7.8-2.9,13.5
			c-0.6,1.8-0.9,3-0.9,4c0,0.8,0.2,1.6,0.7,3.6c0.3,1,0.5,1.6,0.5,1.7C1425.6,330,1425.8,330.4,1426.2,330.9"/>
		<path class="st8" d="M1408.6,320.3c0.5-1.1,0.6-1.3,1.4-2.6c1.2-1.8,1.7-2.8,1.7-3.7v-1.2c0-1.1,0.2-1.7,0.7-1.7
			c0.2,0,0.3,0.1,0.4,0.2l0.4,0.6c0.1,0.2,0.3,0.3,0.5,0.3c0.2,0,0.6-0.3,0.9-0.6c0.5-0.8,0.9-1.9,0.9-2.7l-0.1-0.8l-0.1-0.9
			c0-0.5,0.2-0.7,0.6-0.7c0.3,0,0.4,0.1,0.7,0.7c0.2,0.4,0.4,0.6,0.6,0.6c0.2,0,0.4-0.2,0.6-0.5l0.6-0.9l0.5-0.7l0.1-0.4
			c0-0.2-0.2-0.4-0.6-0.7c-1.4-1-2-2.6-2.1-5.4c-0.1-2.1-0.2-3.5-0.4-4.2c0-0.1-0.5-1.2-1.4-3.3c-0.3-0.8-0.6-1.7-0.9-2.7
			c-0.2-0.7-0.4-0.9-0.9-0.9c-2.1,0-3.6,1.8-3.6,4.1c0,1.4,0.6,3.5,1.6,6.2c1.5,3.7,1.8,5,1.8,6.3c0,2.8-1.1,4-5,5.4
			c-4.3,1.6-6.4,3.8-7.1,7.8c0.3-0.1,0.6-0.2,0.8-0.3c0.5-0.2,0.8-0.3,1.1-0.4l1.2-0.3c1-0.3,1.9-0.8,2-1.4l0.3-1.1
			c0.1-0.3,0.2-0.4,0.5-0.5l0.7-0.3l0.7-0.3l0.1,0.3l-0.3,1c-0.1,0.3-0.2,0.9-0.2,1.8C1407.3,318.1,1407.6,319.1,1408.6,320.3"/>
		<path class="st8" d="M1367.9,250.2c0.1,0.4,0.2,0.7,0.2,0.8c0,0.2-0.1,0.9-0.3,2l-0.1,1.5c0,1.4,0.2,2.8,0.7,4
			c0.4,1.1,0.5,1.4,0.5,1.7l0,0.3c-0.1,0.3-0.2,0.5-0.3,0.5c-0.1,0-0.4-0.2-0.8-0.5c-0.9-0.8-1.8-1.1-2.8-1.1
			c-0.3,0-0.8,0.1-1.3,0.2l0.4,0.8l1.1,2.8l1.6,2.4l1.7,1.1c0.2,0.1,0.3,0.3,0.5,0.4c0.2,0.2,0.2,0.4,0.2,0.5c0,0.1-0.1,0.2-0.3,0.3
			l-1.5,0.1c-0.2,0-0.4,0.2-0.4,0.3c0,0.3,0.2,1,0.6,2.3l0.8,2.2l1.3,1.2l1.4,1c0.4,0.3,0.6,0.6,0.6,0.9c0,0.2-0.1,0.4-0.3,0.4
			l-0.8,0.1c-0.2,0-0.4,0.2-0.4,0.6c0,0.6,0.5,1.6,1.5,3c1.2,1.6,2,2.1,3.3,2.1h1.1c0.5,0,0.9,0.3,0.9,0.7c0,0.4-0.2,0.6-0.7,0.7
			c-1,0.2-1.4,0.4-1.4,0.9c0,0.2,0.1,0.5,0.4,0.8l0.6,0.8c0.5,0.7,1.1,1.1,1.4,1.1c0.2,0,0.7-0.2,1.1-0.7c0.7-0.8,1.5-1.4,2.5-1.7
			c2.6-0.7,3.2-0.9,3.2-1.6c0-0.2-0.1-0.5-0.3-0.9c-0.8-1.5-1.1-2.5-1.1-3.7c0-0.9-0.2-1.6-0.6-1.6c-0.1,0-0.4,0.2-0.6,0.6
			c-0.6,1-1.7,1.6-2.7,1.6c-2.6,0-5.8-4.1-7.4-9.6c-0.4-1.3-0.6-2.7-0.6-4.1c0-1.4,0.2-3,0.6-4.6c0.5-2.2,0.8-3.5,0.8-3.7l0.1-1
			C1372.3,254.5,1370.6,252.1,1367.9,250.2"/>
		<path class="st8" d="M1373.3,260.7c-0.6,1.1-1.1,3.4-1.1,4.9c0,0.9,0.3,1.6,0.7,1.6c0.1,0,0.3-0.1,0.4-0.4l0.8-1.5
			c0.1-0.3,0.3-0.5,0.5-0.9c0.3-0.4,0.5-0.9,0.5-1.1C1375.2,262.4,1374.4,261.3,1373.3,260.7"/>
		<path class="st8" d="M1381.7,294.9c0.2,0.2,0.3,0.3,0.4,0.4c0.3,0.3,0.5,0.5,0.6,0.6c1.5,1.5,1.7,1.7,2.4,1.7c0.7,0,2-0.4,2.8-0.8
			c0.3-0.2,0.5-0.4,0.5-0.5c0-0.1-0.3-0.4-0.8-0.8l-0.8-0.8c-0.6-0.6-1.6-1.1-2-1.1C1383.9,293.6,1383,294,1381.7,294.9"/>
		<path class="st8" d="M1399.3,308.6c0.8,0.3,1.1,0.5,1.5,0.8c0.7,0.4,1.1,0.7,1.2,0.8c0.2,0.1,0.6,0.2,1.2,0.2
			c0.3,0,0.7-0.1,0.9-0.2l1.6-0.6l1.5-0.5c0.4-0.1,0.7-0.4,0.7-0.6c0-0.1-0.3-0.3-0.8-0.4c-0.3-0.1-0.7-0.2-1.1-0.4
			c-1.9-0.8-2.1-0.9-2.8-0.9C1401.6,306.8,1400.1,307.5,1399.3,308.6"/>
		<path class="st8" d="M1418.4,323.9c0.5-1.2,0.9-1.4,2.6-1.5c1.9-0.1,3.8-3.6,3.8-6c0-0.2-0.1-0.4-0.2-0.4c-0.1,0-0.3,0.1-0.5,0.2
			c-0.5,0.4-0.9,0.6-1.1,0.7l-2.2,1c-1.5,0.7-2.8,2.6-2.8,4.2C1418,322.6,1418.1,323,1418.4,323.9"/>
		<path class="st6" d="M1385.7,258l0.8,1.1c0.2,0.2,1.5,1.2,1.6,1.2c0.2,0,0.4-0.2,0.5-0.7l0.3-1.1l0.1-1.3c0-1-0.4-1.4-2.5-1.9
			c-0.5-0.1-0.7-0.1-1.1-0.4c-0.3-0.2-0.7-0.5-0.9-0.5c-0.2,0-0.3,0.1-0.3,0.2l0.1,0.3l0.4,1.1L1385.7,258z"/>
		<path class="st6" d="M1393.8,258l-1,1.8c-0.2,0.3-0.4,0.4-0.4,0.4l-0.1,0c-0.4,0-0.8-0.9-0.8-1.9l-0.1-1.5
			c0.1-0.6,0.5-0.9,1.4-1.1c0.8-0.1,1.3-0.3,1.5-0.5c0.7-0.5,1.1-0.8,1.2-0.8l0.1,0c0.2,0,0.3,0.1,0.3,0.4l0,0.1l-0.5,1.3
			L1393.8,258z"/>
		<path class="st6" d="M1391.8,263.2l1.2-0.6c0.2-0.1,0.4-0.2,0.6-0.2c0.6,0,1,0.4,1,1.2c0,0.9-0.7,2-1.6,3.7c-1,1.8-1.8,3-2.5,3
			c-1.1,0-2.6-1.7-4.1-4.6c-0.4-0.7-0.6-1.5-0.6-2.1c0-1,0.4-1.5,1.2-1.5c0.3,0,0.6,0.1,0.9,0.2l0.7,0.5c0.6,0.4,1.3,0.6,1.9,0.6
			C1391,263.5,1391.4,263.4,1391.8,263.2"/>
		<path class="st8" d="M1390.1,265l-0.8-0.1l-0.1,0c-0.5,0-0.7,0.3-0.7,0.8c0,0.8,0.6,2.2,1.4,3.3c0.1,0.2,0.4,0.3,0.6,0.3
			c0.5,0,0.8-0.9,1.1-2.4l0.2-1.1l0-0.2c0-0.5-0.1-0.6-0.5-0.6l-0.2,0"/>
	</g>
	<g>
		<path class="st6" d="M1559.3,284.8c1.3,1.7,3.2,2.9,4.7,2.9c0.5,0,1.3-0.1,2-0.3c0.4-0.1,0.7-0.2,1-0.2c0.4,0,0.5,0.1,0.5,0.5
			c0,0.3-0.2,0.9-0.4,1.4c-0.2,0.6-0.4,1-0.5,1.4l-0.3,1.6l-0.8,1.4l-1.1,1l-0.3,0.3v0.7v0.3c0,1.9-0.5,2.9-2,3.9
			c-0.1,0.1-0.3,0.2-0.5,0.4l-0.2,0.6c-0.3,1.4-0.6,2.3-0.8,2.6c-0.2,0.4-0.7,1.1-1.4,2.1c-0.9,1.2-1.5,2.2-1.9,3.1
			c-0.3,0.8-0.5,1-1,1c-0.7,0-1.5-0.9-1.6-2c-0.2,0.2-0.3,0.4-0.4,0.5l-0.9,0.6l-1.4,1c-0.6,0.4-1,0.7-1.2,0.9l-0.8,0.8
			c-0.1,0.1-0.3,0.2-0.4,0.2c-0.4,0-0.8-0.6-1.2-1.9l-0.8-2.5c-0.2-0.7-0.3-1.5-0.3-2.4c0-1.3,0.1-1.7,0.5-2.7
			c-1.5,0.2-1.9,0.2-2.7,0.5c-0.2,0.1-0.5,0.1-0.7,0.1c-0.3,0-0.4-0.2-0.4-0.5c0-0.2,0.1-0.7,0.3-1.1l1-2.6c0.8-2,3.2-3.8,5.2-3.8
			c0.5,0,1.1,0.1,1.9,0.4c0.5,0.2,0.9,0.2,1.1,0.2c0.9,0,1.6-0.6,1.6-1.4c0-0.4-0.3-0.8-0.6-1c-0.1-0.1-1-0.3-2.7-0.8
			c-1.3-0.4-1.9-0.8-3.3-2.5c-1-1.2-1.4-1.5-1.8-1.5c-0.3,0-0.4,0.2-0.4,0.5l0.1,1l0,0.5c0,2.1-0.6,4.1-2.1,6.9l-2.1,3.9
			c-1,1.8-1.4,3.2-1.4,4.6c0,1.5,0.7,2.9,1.5,3.1l1.1,0.3c0.1,0,0.3,0.1,0.4,0.2c0.1,0.2,0.2,0.3,0.2,0.4c0,0.2-0.1,0.4-0.4,0.7
			c-0.1,0.1-0.6,0.7-1.4,1.7c-1.3,1.7-2.1,2.3-3.7,2.8c-0.9,2.2-2.4,3.5-5.1,4.4l-0.3,0.5c-0.9,1.6-2.9,3-4.2,3h-0.3
			c-0.2,1.4-1.2,2.8-2.7,3.9c-1,0.7-1.6,1.1-1.7,1.3c-0.1,0.1-0.2,0.3-0.4,0.7c-0.3,0.8-0.7,1.1-1.1,1.1c-0.8,0-1.5-0.8-1.9-2.2
			c-0.3,0.2-0.5,0.3-0.7,0.5c-0.9,0.6-1.3,0.9-1.4,1c-0.3,0.2-1.2,0.4-2.7,0.8c-1.9,0.4-3.5,1.2-3.9,1.9l-0.7,1.1l-0.3,0.1
			c-0.4,0-0.8-0.5-1-1.2c-0.4-1.6-0.7-3.2-0.7-4.3c0-2.7,0.9-4.4,3.6-7.2l0-0.7c0-4.2,3.2-7,7.9-7l0.8,0l2.6,0.2l0.2,0
			c1.4,0,2.7-0.5,4.1-1.7c1.9-1.5,2.4-2.4,2.4-4.1c0-0.5-0.1-1.2-0.7-3.1c-0.4-1.3-0.6-2.4-0.6-3.6c0-3.1,2.3-7,5.4-9.2
			c0.8-0.6,1.4-1.3,1.4-1.7c0-0.2-0.1-0.3-0.2-0.3c-0.2,0-0.5,0.2-1,0.6c-0.4,0.3-1,0.7-1.8,1.1l-1.2,0.6l-1.4,0.5
			c-0.4,0.2-0.6,0.4-0.6,0.7c0,0.2,0.1,0.4,0.2,0.7c0.1,0.2,0.2,0.4,0.2,0.6c0,0.2-0.1,0.5-0.4,0.9l-1.1,1.7c-1,1.7-1.8,2.4-3.1,3
			c-0.9,2.5-2.1,3.8-3.9,4c-1.4,2.9-2.7,3.9-5.2,4.2c-0.4,1.1-1,2-2.3,3.5c-0.5,0.6-0.9,1-1,1.2c-0.6,1.1-0.6,1.1-0.9,1.1
			c-0.3,0-1.1-0.5-1.7-1.1c-0.3-0.3-0.5-0.6-0.7-0.9l-0.7-1.2c-0.2-0.4-0.4-0.6-0.7-0.6l-0.5,0l-1.7,0.2c-1,0.1-2.5,1-3,1.7
			l-0.9,1.4c-0.1,0.1-0.2,0.2-0.4,0.2c-0.7,0-1.1-1.5-1.1-4c0-2.2,0.3-3.6,1.1-4.7l2.1-3c0.3-0.4,0.5-0.8,0.5-1.2
			c0-0.3-0.1-0.7-0.4-1c-0.5-0.5-0.9-0.9-1.2-0.9l-1.6-0.2c-0.3,0-0.4-0.1-0.4-0.2c0-0.1,0.1-0.3,0.2-0.5c0.5-0.7,1.2-1.2,1.9-1.7
			c1.9-1.1,3.1-1.6,4.4-1.6c1.3,0,2.7,0.5,4,1.3l2.2,1.4c0.3,0.2,0.7,0.3,1.1,0.3c1,0,1.8-0.6,2.5-2c0.7-1.3,1-2.4,1-3.5
			c0-2.8-2-4.9-4.9-4.9c-1.3,0-2.7,0.5-3.9,1.5c-0.4,0.3-0.6,0.6-0.8,0.8l-0.6,1.4c-0.1,0.3-0.4,0.5-0.5,0.5c-0.4,0-1.2-1.1-2-2.5
			c-0.4-0.7-0.7-1.6-1.1-2.7c-0.5-1.5-0.6-2.6-0.6-3.8l0.1-2.1c-1-1.6-1.4-2.8-1.4-4.7c0-0.7,0.1-1.2,0.5-2.7
			c-0.6-1.1-0.8-1.8-0.8-3.4l0.1-0.9l0.2-1.1l0.2-0.9c-0.7-1-0.9-1.6-1.7-4.9c-0.4-1.9-0.7-2.7-1-3.2c-0.2-0.2-0.2-0.4-0.2-0.5
			c0-0.4,1.1-0.8,2.3-0.8l1.1,0.1c-0.3-0.7-0.3-1-0.3-1.5c0-0.9,0.2-2,0.5-3c0.4-1.2,0.5-1.5,0.5-1.9c0-0.9-0.1-1.8-0.3-2.3
			l-0.6-1.5c-0.1-0.3-0.2-0.6-0.2-0.8c0-0.2,0.1-0.2,0.4-0.2c1.5,0,4.3,1.6,6.6,3.7c2.2,2.1,2.9,3.8,2.9,6.9l-0.1,1.7
			c2.1,1.8,3,3.3,3,4.9c0,1.2-0.4,2-1.5,3.1c-2,2-2.5,3.1-2.5,5.7c0,4,1.2,6.2,3.4,6.2c2,0,3.5-2.1,3.7-5.2l0.2-2.9
			c0.1-0.7,0.2-1.7,0.4-2.7c0.1-0.7,0.2-1.6,0.2-2c0-1-0.7-2.3-2.7-4.6c-2.1-2.5-2.8-3.8-2.8-5.8c0-2.3,1.6-4,3.8-4
			c0.5,0,0.8,0.1,1.5,0.4c0-1.3,0.1-1.6,0.8-3.4c0.6-1.5,1.2-2.5,1.5-2.5c0.1,0,0.3,0.1,0.5,0.3c0.3,0.3,0.7,0.6,1,0.8
			c0.5,0.3,0.7,0.5,0.8,0.5c0.2,0.1,0.4,0.4,0.7,0.7c0.5-1.7,1-2.5,2.4-3.9c1.1-1,1.5-1.4,1.7-1.4c0.2,0,0.4,0.1,0.5,0.4l0.9,1.2
			l1.3,1.4c0.5,0.5,0.7,1,0.9,2.3l0.8-0.5l1.2-0.7c0.2-0.1,0.5-0.3,0.9-0.6c0.2-0.1,0.4-0.2,0.5-0.2c0.1,0,0.3,0.2,0.4,0.5l0.4,1.7
			l1,2c0.3,0.6,0.4,1,0.4,1.9l0,0.5l0.5,0c1.5,0,2.8,1.8,2.8,3.8c0,2.7-2.2,6.2-5,8c-0.3,0.9-0.3,1.3-0.3,2c0,6,1.6,7.3,10.8,8.7
			c2.3,0.3,4.4,0.8,6.2,1.3c0.3,0.1,2.3,0.7,6,2c2,0.7,3.4,1,4.5,1c1.1,0,1.8-0.3,1.8-0.9c0-1-1.5-2-6.2-3.8l-6.6-2.6
			c-6.7-2.6-9.9-6.7-9.9-12.7c0-7,5.3-12.3,12.3-12.3c2.6,0,5.2,0.5,9,1.9c4.8,1.7,5,1.8,5.5,1.8c0.9,0,1.4-0.6,1.6-2
			c0.1-1.1,0.4-1.6,1.1-1.6c0.9,0,1.9,0.9,2.7,2.3c0.6,1.2,1,2.7,1,3.9c0,2.5-1.3,4.1-3.7,4.6c-1.6,2.1-3.6,3.1-6.1,3.1
			c-3,0-4.5-0.6-9.7-3.8c-1.8-1.2-2.6-1.4-4-1.4c-1.8,0-3.1,1.1-3.1,2.6c0,1.4,1.1,2.3,3.6,3c1.5,0.4,1.7,0.5,2.5,1.3
			c0.6-0.1,0.9-0.2,1.3-0.2c2.5,0,5.5,1.3,8.1,3.5c4.7,1.4,8.8,6.5,8.8,10.7c0,4.7-4.1,8.9-8.6,8.9
			C1564,285.7,1561.5,285.3,1559.3,284.8"/>
		<path class="st8" d="M1556.6,305.8l0.3-0.8l0.3-1.1c0.1-0.2,0.3-0.6,0.8-1.3c0.8-1,1.2-2.3,1.2-3.8c0-0.5-0.1-0.9-0.4-1.5
			c-0.1-0.3-0.2-0.5-0.2-0.7c0-0.1,0.1-0.2,0.2-0.4c0.1-0.1,0.2-0.2,0.3-0.2l0,0c0.2,0,0.5,0.2,0.8,0.5c0.3,0.4,0.6,0.6,0.8,0.6
			c0.3,0,0.7-0.6,0.9-1.4c0.1-0.5,0.2-0.7,0.2-0.8c0-0.4-0.3-1.3-0.7-2.1c-0.1-0.3-0.2-0.6-0.2-0.8c0-0.3,0.2-0.5,0.4-0.5
			c0.2,0,0.6,0.2,1,0.6c0.2,0.2,0.4,0.3,0.6,0.3c0.5,0,0.8-0.5,1.2-1.7c0.2-0.7,0.3-1.1,0.3-1.2c0-0.2-0.1-0.4-0.3-0.4l-0.3,0
			l-0.9,0.1c-1.4,0-3.3-1-4.3-2.1l-2.1-2.6c-0.8-1-2-2.5-1.9-2.5l-1.7-1.1c-0.3-0.2-0.5-0.4-0.5-0.6c0-0.3,0.3-0.5,0.7-0.5
			c0.4,0,1.6,0.4,3.9,1.4c2.2,0.9,5.6,1.7,7.7,1.7c3.6,0,6.6-2.9,6.6-6.5c0-1.9-0.9-3.7-3-6.3c-0.4-0.5-1.1-0.9-1.4-0.9
			c-0.2,0-0.4,0.2-0.4,0.4c0,0.2,0.1,0.5,0.2,0.9c0.1,0.2,0.1,0.5,0.1,0.7c0,0.3-0.1,0.5-0.4,0.5c-0.5,0-1-0.8-1.4-2.1
			c-0.5-1.7-1.5-2.7-3.8-3.9c-0.9-0.5-2-0.9-2.4-0.9c-0.1,0-0.2,0.1-0.2,0.3c0,0.3,0.1,0.6,0.3,0.9c0.3,0.5,0.5,1,0.6,1.4l0,0.1
			c0,0.3-0.2,0.5-0.4,0.5c-0.5,0-0.6-0.1-1.7-1.8c-0.6-0.9-2.1-2-3.4-2.6c-0.4-0.2-0.9-0.3-1.3-0.3l0,0c-0.3,0-0.5,0.1-0.5,0.3
			c0,0.1,0.1,0.3,0.3,0.7l0.1,0.4c0,0.2-0.2,0.4-0.4,0.4c-0.5,0-1.9-1.2-3-2.4c-1.2-1.4-2-3.2-2-4.5c0-2.9,2.8-5.5,5.9-5.5
			c0.8,0,1.4,0.1,1.9,0.4l2.6,1.4l3.1,2.1c1.8,1.2,4.2,2.1,5.7,2.1c0.6,0,1-0.1,2.4-0.5c0.7-0.2,1.2-0.5,1.2-0.8l0-0.1l-0.3-0.2
			l-1.7-0.1c-0.9-0.1-3-1-4.7-2.1l-3.5-2.3l-3.1-1.3c-0.2-0.1-0.4-0.2-0.4-0.4c0-0.2,0.2-0.3,0.4-0.3c0,0,0.3,0.1,0.9,0.2l2.9,0.8
			c0.7,0.2,1.9,0.7,3.5,1.6c3.2,1.7,5.2,2.4,6.7,2.4c1.8,0,3-1.2,3-2.8c0-0.5-0.1-1.4-0.3-2.2c-0.1-0.4-0.2-0.7-0.5-1
			c-0.1-0.2-0.3-0.3-0.4-0.3c-0.2,0-0.3,0.2-0.3,0.6l0,0.5l0,0.4c0,1.4-0.5,1.9-2.1,1.9c-1.3,0-2.9-0.5-6.8-2c-3.6-1.4-5.9-2-8.1-2
			c-5.7,0-10.7,4.7-10.7,10c0,4.6,3,8.1,9.3,10.7l6.4,2.7c5.3,2.2,7.3,3.8,7.3,5.8c0,1.7-1.6,2.8-4.1,2.8c-1.1,0-2.4-0.3-4.9-1.1
			c-6-1.9-9.9-2.7-13.4-2.7c-5.6,0-9.6,1.5-12.8,4.9c-0.4,0.4-0.7,0.6-1,0.6c-0.3,0-0.5-0.1-1.1-0.4c-0.6-0.3-1.2-0.5-1.7-0.5
			c-0.6,0-1.4,0.5-1.8,1l-0.8,1c-0.2,0.3-0.5,0.5-0.7,0.5c-0.5,0-1.5-0.9-2.1-2.1c-0.4-0.7-0.6-1.3-0.8-2c-0.1-0.5-0.2-1.3-0.2-2.1
			l0.1-1.4l0.2-1.5c0.1-0.7,0.2-1.2,0.2-1.3c0.1-0.2,0.2-0.3,0.4-0.3c0.4,0,0.6,0.4,0.6,1.2l0,0.5l0,0.3c0,2.2,0.9,4.1,1.8,4.1
			c0.7,0,1.4-1.3,1.9-3.9c0.1-0.5,0.3-0.8,0.6-0.8c0.3,0,0.5,0.4,0.7,1.5c0.1,0.7,0.6,1.8,1.1,2.4c0.3,0.4,0.6,0.6,0.9,0.6
			c0.6,0,1-0.9,1.3-3.1c0.1-0.8,0.4-1.4,0.7-1.4c0.1,0,0.2,0.1,0.3,0.2c0.1,0.1,0.2,0.3,0.5,0.8c0.2,0.3,0.5,0.6,0.8,0.8
			c0.4,0.2,0.7,0.3,0.9,0.3c0.2,0,0.5-0.1,0.7-0.3c0.3-0.3,0.5-0.5,0.5-0.6c0-0.1-0.2-0.3-0.5-0.7c-0.5-0.5-0.9-1.2-1.4-2.5
			c-0.3-0.8-0.5-1.4-0.7-1.7c-0.1-0.3-0.3-0.5-0.4-0.5l-0.2-0.1l-0.4,0.1c-0.1,0-0.6,0.2-1.6,0.4l-0.5,0.1c-0.2,0-0.4-0.1-0.4-0.4
			c0-0.2,0.3-0.6,0.6-0.8c1.9-1.5,3.1-4.1,3.5-7.8c0.3-2.3,0.6-3.1,1.5-4.5c0.2-0.3,0.4-0.5,0.5-0.5c0.3,0,0.5,0.2,0.5,0.7
			c0,0.3-0.1,0.7-0.2,1.1c-0.1,0.3-0.2,0.6-0.2,0.9l0,0.3l0.2,0.5l0.8-0.3l0.9-1.1c0.5-0.6,1-2.1,1-3.1c0-0.7-0.2-1.2-0.6-1.7
			c-0.5-0.6-0.8-0.8-1.2-0.8l-0.5,0l-0.5,0c-0.5,0-0.7-0.1-0.7-0.4l0.1-0.6l0.1-0.8l-0.5-1.9l-0.4-0.9l-0.2-0.8l-0.5,0.4l-1.1,0.7
			c-0.3,0.2-0.6,0.5-0.9,0.8c-1.1,1.3-1.1,1.4-1.6,1.4c-0.3,0-0.4-0.1-0.4-0.3l0-0.3c0.2-0.7,0.2-1.2,0.2-1.6c0-1.3-1-3.3-2.1-4.4
			c-1.6,1.5-2.4,3.2-2.4,4.8v0.9c0,0.3-0.1,0.5-0.3,0.5h0c-0.2,0-0.4-0.2-0.5-0.4l-0.9-1.2c-0.1-0.1-0.5-0.4-1.2-1
			c-0.1-0.1-0.3-0.3-0.6-0.5l-0.3,0.6c-0.7,1.5-1,2.4-1.1,3.6c0,1-0.1,1.3-0.4,1.3c-0.1,0-0.3-0.1-0.5-0.2c-1.1-0.6-1.3-0.7-1.8-0.7
			c-1.4,0-2.3,1-2.3,2.4c0,0.6,0.3,1.4,0.9,2.5c0.7,1.2,1.7,2.4,2.2,2.4c0.1,0,0.2-0.1,0.2-0.5l0-0.2l-0.1-1.3l-0.2-1l0-0.1
			c0-0.3,0.1-0.4,0.3-0.4c0.7,0,1.3,2,1.8,6c0.4,3.5,1.4,6,2.9,7.4c0.4,0.4,0.6,0.7,0.6,0.8c0,0.1-0.1,0.2-0.3,0.2
			c-0.2,0-0.6-0.1-1-0.4c-0.3-0.2-0.6-0.2-0.8-0.2c-0.8,0-1.6,0.9-1.8,1.8l-0.7,4.3l-0.5,6.1c-0.1,1.1,0.1,2.7,0.5,4.5
			c0.4,1.6,0.5,2.8,0.5,3.6c0,4.5-2.8,8.1-7.5,9.5l-4.8,1.4c-3,0.9-4.5,2.9-4.9,6.6c0.8-0.6,1-0.7,2.2-0.9l1.4-0.2
			c0.6-0.1,1-0.2,1.3-0.4c0.1-0.1,0.4-0.4,0.8-0.8l1.3-1.4c0.5-0.5,0.9-0.9,1.2-0.9c0.2,0,0.3,0.2,0.3,0.4c0,0.3-0.2,0.7-0.5,1.3
			c-0.4,0.6-0.6,1.2-0.6,2c0,1,0.3,1.6,1.2,3c0.1-0.5,0.2-0.8,0.3-0.9c0.1-0.2,0.5-0.8,1.1-1.6c1-1.4,1.8-2.8,1.8-3.4
			c0-1.2,0.1-1.6,0.4-1.6c0.3,0,0.3,0.1,0.4,0.7c0,0.2,0.1,0.3,0.2,0.5c0.2,0.2,0.3,0.3,0.5,0.3c0.1,0,0.3-0.1,0.6-0.3
			c0.5-0.4,0.9-0.7,1.2-1.1c0.3-0.4,0.6-0.9,0.8-1.4c0.3-0.7,0.4-1.2,0.4-1.4l0-1c0-0.3,0.1-0.5,0.3-0.5c0.2,0,0.6,0.4,0.8,0.8
			c0.2,0.3,0.3,0.4,0.5,0.4h0c0.3,0,0.5-0.1,0.7-0.3c0.9-0.9,1.5-2,1.5-2.8l-0.1-1.4l-0.3-1.1l0-0.1c0-0.2,0.2-0.4,0.4-0.4
			c0.3,0,0.7,0.5,1.2,1.6c0.2,0.5,0.5,0.8,0.7,0.8c0.4,0,0.6-0.3,1.4-1.3l0.7-1c0.1-0.2,0.2-0.5,0.2-0.8c0-0.3-0.1-0.5-0.2-0.7
			l-0.6-0.9c-0.1-0.2-0.2-0.4-0.2-0.8c0-1,0.4-2.2,1.1-3.6c0.6-1,0.9-1.6,1-1.9c0.1-0.3,0.3-0.5,0.4-0.5c0.1,0,0.3,0.2,0.3,0.4
			l-0.1,0.8v0.6v0.6c0.1,0.3,0.3,0.4,0.7,0.4c0.2,0,0.5-0.1,0.8-0.2l1.9-0.7c0.5-0.2,1-0.4,1.7-0.8c3-1.6,3.9-2,5.4-2
			c0.9,0,2,0.3,3.6,1.1c0.3,0.2,0.6,0.2,0.8,0.2c0.2,0,0.5-0.1,0.7-0.4c0.2-0.2,0.2-0.4,0.2-0.6c0-0.3-0.1-0.6-0.3-0.9
			c-0.2-0.4-0.5-0.9-0.5-1.1c0-0.2,0.1-0.3,0.3-0.3c0.2,0,0.4,0.2,0.6,0.4c0.2,0.4,0.8,1.4,1.7,3c1.4,2.5,3.3,4.3,4.9,4.6l3.3,0.8
			c1,0.2,1.3,0.6,1.3,1.9c0,2.4-1.1,4.4-3,5.7l-2.7,1.8c-1,0.6-1.8,2.4-1.8,3.8c0,0.9,0.2,2.6,0.5,3.9l0.5-0.5l1.3-0.8l1.1-1.1
			l0.6-1.7l0.6-1.5c0.3-0.7,0.6-1.2,0.9-1.2c0.3,0,0.4,0.4,0.4,1.2l0,0.2l0,0.3C1555.6,303.7,1555.7,304.1,1556.6,305.8"/>
		<path class="st8" d="M1511.7,327.4c0-3.6,1.3-5.2,6.5-7.8c10.3-5.2,15.9-10,15.9-13.7c0-0.7-0.2-1.8-0.9-4.1
			c-0.4-1.4-0.7-2.6-0.7-3.3c0-1.7,1.4-4.2,3.2-5.8l1.4-1.3c0.8-0.7,1.4-1.7,1.4-2.4l0-0.3l0-0.5c0-0.7,0.3-1,1.1-1.1l0.7-0.1
			c0.3-0.1,0.5-0.2,0.6-0.2c0.2,0,0.5,0.1,0.6,0.4l0.4,0.6l0.5,0.6c0.2,0.2,0.4,0.3,0.5,0.3c0.1,0,0.3-0.1,0.6-0.2
			c0.4-0.2,0.6-0.3,0.9-0.3c0.4,0,0.6,0.2,0.6,0.7c0,1.5-1,3.7-2.7,6.1c-2.9,3.9-3.9,6.1-3.9,8.6c0,2,0.6,3.7,1.7,5.1
			c0.2,0.3,0.3,0.5,0.3,0.6c0,0.2-0.2,0.5-0.5,1c-0.1,0.2-0.3,0.4-0.5,0.6c-0.6,0.9-1,1.2-1.4,1.2c-0.3,0-0.6-0.2-0.7-0.6l-0.3-0.8
			c-0.1-0.2-0.3-0.4-0.4-0.4c-0.1,0-0.2,0.1-0.3,0.3c-0.2,0.3-0.3,0.5-0.3,0.8v1.3c0,0.5-0.2,1-0.5,1.5c-0.3,0.4-0.6,0.8-1.1,1.1
			c-0.3,0.2-0.5,0.4-0.6,0.4c-0.2,0-0.4-0.2-0.5-0.6l-0.5-1.5c-0.1-0.2-0.2-0.4-0.4-0.4c-0.3,0-0.5,0.4-0.5,1.1
			c-0.2,1.7-0.5,2.8-0.9,3.2l-1.1,1c-0.3,0.3-0.7,0.6-1,0.6c-0.2,0-0.4-0.1-0.5-0.2l-0.5-1.1c-0.1-0.1-0.2-0.2-0.3-0.2
			c-0.3,0-0.5,0.6-0.6,1.8c-0.3,2.7-0.8,4-2.3,5c-1.2,0.8-1.4,1.1-1.9,2.1c-0.7-1-0.9-1.8-0.9-3c0-0.6,0.1-1.1,0.3-1.4
			c0.3-0.6,0.5-1,0.5-1.3c0-0.2-0.1-0.3-0.3-0.3c-0.1,0-0.2,0.1-0.4,0.3c-0.2,0.2-0.5,0.5-1,0.8c-1.4,0.8-1.6,1.1-1.9,2.6
			c-0.4,2-1.4,3-3.5,3.4c-2.6,0.5-2.7,0.6-3.6,1.4L1511.7,327.4z"/>
		<path class="st8" d="M1506.8,249.2v0.8l0,1.1c0,0.4,0,0.7-0.2,1.2c-0.2,1.1-0.3,1.4-0.3,1.7c0,1.5,0.2,2.2,1.1,3.7
			c0.5,0.8,0.8,1.8,0.8,2.5c0,0.3-0.1,0.5-0.3,0.5c-0.1,0-0.3-0.1-0.4-0.2l-0.6-0.8c-0.5-0.7-0.9-0.8-2.2-0.8l-1.3,0.1
			c0.5,1.3,0.7,1.8,0.9,2.7c0.6,2.5,0.7,2.7,2,3.9c1.4,1.2,1.5,1.4,1.5,1.8c0,0.3-0.2,0.6-0.5,0.6l-0.5-0.1l-0.3,0
			c-0.4,0-0.8,0.8-0.8,1.6c0,0.5,0.2,1.3,0.5,1.9c0.2,0.4,0.4,0.8,0.5,0.9l0.8,0.8c0.2,0.2,0.3,0.5,0.3,0.8c0,0.4-0.2,0.7-0.5,0.7
			c-0.2,0-0.4-0.1-0.7-0.2c-0.2-0.1-0.4-0.2-0.5-0.2c-0.3,0-0.5,0.2-0.5,0.6l0.1,1.1l0.5,2c0.1,0.4,0.4,0.9,0.8,1.4
			c0.4,0.4,0.8,0.7,1.1,0.9c1,0.4,1.5,0.6,1.5,0.7c0.1,0.1,0.2,0.3,0.2,0.6c0,0.3-0.2,0.5-0.5,0.5c-0.1,0-0.3-0.1-0.8-0.2l-0.8-0.1
			c-0.8,0-0.8,0-0.8,0.6c0,0.4,0.1,0.8,0.2,1.2l0.3,1.2c0.3,1.3,0.7,2,1.2,2c0.1,0,0.3-0.1,0.5-0.3c1.1-0.8,3.3-1.6,4.7-1.6
			c1.4,0,3,0.2,3.7,0.4c0.3,0.1,0.6,0.2,0.7,0.2c0.2,0,0.2-0.2,0.3-0.9l0.2-1.4l0.3-2.4l0.2-1.7v-1c-0.3,0.2-0.5,0.4-0.6,0.5
			c-1.3,1.2-2.1,1.6-3.4,1.6c-3.5,0-5.5-3.9-5.5-10.8c0-2.8,0.4-6.8,1.2-11.4c0.2-1,0.2-1.6,0.2-2.1
			C1511.1,253.4,1509.5,251,1506.8,249.2"/>
		<path class="st8" d="M1511.9,266.2l0.7-0.7l0.7-0.6c0.6-0.5,1-1.6,1-2.3c0-0.4-0.1-0.7-0.3-1.1c-0.3-0.6-0.8-1.1-1.1-1.1
			c-0.3,0-0.5,0.6-0.6,1.6l-0.2,1.1l-0.2,1.1l-0.1,1.1V266.2z"/>
		<path class="st8" d="M1505.3,297.2c0.8,0.3,0.9,0.4,1.7,1.4c1.1,1.2,1.6,1.5,3,1.5c0.4,0,0.7,0,1.1-0.1l1-0.3l0.8-0.2
			c0.4-0.1,0.6-0.3,0.6-0.4c0-0.2-0.6-0.7-1.5-1.3c-0.6-0.4-1.2-0.8-1.8-1.1c-0.7-0.3-1.2-0.5-1.7-0.5
			C1507.3,296.2,1506.3,296.5,1505.3,297.2"/>
		<path class="st8" d="M1515.5,318.5c0-2.4,2.4-4.5,5.3-4.5c1.5,0,2.3,0.3,2.3,0.8c0,0.4-0.6,0.9-2,1.7c-0.1,0.1-0.9,0.5-2.2,1.2
			c-1.5,0.8-2,1.1-3.3,1.7L1515.5,318.5z"/>
		<path class="st8" d="M1546.4,300.2c1.1-0.2,1.4-0.5,2-0.5l1.4,0.1c0.2-0.1,0.5-0.3,0.9-0.6c0.2-0.2,0.6-0.4,1.1-0.8
			c1.5-1,1.6-1.1,1.6-1.4c0-0.4-0.6-0.6-1.9-0.6C1549,296.3,1547.5,297.4,1546.4,300.2"/>
		<path class="st6" d="M1523.5,254l1.1,0.7c0.6,0.4,1.1,0.7,1.5,0.8c1.2,0.5,1.6,0.7,1.6,1.1c0,0.2,0,0.6-0.2,0.9
			c-0.1,0.3-0.2,0.7-0.2,1.1c-0.1,1-0.7,1.3-1.1,1.3c-0.5,0-1-0.8-1.9-2.3c-0.4-0.7-0.9-2-1.2-3l0-0.3c0-0.2,0.1-0.3,0.3-0.3"/>
		<path class="st6" d="M1533.7,256.6l-1.7,1.8c-0.6,0.8-0.6,1.5-0.8,1.7c-0.1,0.1-0.3,0.2-0.5,0.2l-0.1,0c-0.4,0-0.8-0.3-0.8-0.8
			l-0.1-1.3l-0.1-1.3v-0.1c0-0.5,0.3-0.8,0.7-0.8l1.6-0.4l1.7-0.8c0.5-0.2,0.6-0.3,0.7-0.3c0.2,0,0.4,0.2,0.4,0.4
			c0,0.1-0.1,0.3-0.2,0.5L1533.7,256.6z"/>
		<path class="st6" d="M1526,261.8l1.1,0.8c0.3,0.2,0.6,0.3,1,0.3c0.5,0,1.1-0.2,1.8-0.5l1-0.5c0.2-0.1,0.4-0.2,0.6-0.2
			c0.6,0,1.1,0.6,1.1,1.4c0,1.1-0.8,2.3-2,3.9l-0.8,1.8c-0.7,0.9-1.1,1.3-1.6,1.3c-0.9,0-1.3-0.5-2.7-3.2c-1-1.9-1.4-3.1-1.4-4
			c0-0.8,0.4-1.4,1-1.4C1525.4,261.7,1525.7,261.6,1526,261.8"/>
		<path class="st8" d="M1527,266l0.1,1.4c0,0.7,0.6,1.3,1.1,1.3c0.7,0,1.2-1.1,1.5-2.7c0.1-0.7,0.2-0.9,0.2-1.1
			c0-0.6-0.2-0.7-0.9-0.7l-0.4,0h-0.5l-0.3,0c-0.5,0-0.7,0.4-0.7,1.3"/>
	</g>
	<g>
		<path class="st6" d="M1441.7,231.7h7.4v15.2h8.7v-15.1h22v15.1h8.7v-15.1h7.4v-39.3h-8.5l-0.3-0.5c-1-1.5-2.4-2.3-4.1-2.3
			c-1.7,0-3.1,1-4,2.8h-6.1c-0.6-1.6-2.3-2.8-4.1-2.8c-1.9,0-3.5,1-4.3,2.8h-6.6c-1.1-2-2.3-2.8-4.2-2.8c-1.9,0-3.1,0.8-4.1,2.8h-8
			V231.7z"/>
		<rect x="1444.9" y="195.8" class="st7" width="48.2" height="33"/>
		<path class="st8" d="M1449.9,203.3c-1.3,0-2.3,1-2.3,2.3c0,1.3,1,2.3,2.3,2.3c1.3,0,2.3-1,2.3-2.3
			C1452.2,204.3,1451.1,203.3,1449.9,203.3"/>
		<path class="st9" d="M1449.9,208.2c-1.4,0-2.6-1.2-2.6-2.6c0-1.4,1.2-2.6,2.6-2.6c1.4,0,2.6,1.2,2.6,2.6
			C1452.5,207,1451.3,208.2,1449.9,208.2z M1449.9,203.6c-1.1,0-2,0.9-2,2c0,1.1,0.9,2,2,2c1.1,0,2-0.9,2-2
			C1451.9,204.5,1451,203.6,1449.9,203.6z"/>
		<path class="st8" d="M1487.7,203.3c-1.3,0-2.3,1-2.3,2.3c0,1.3,1,2.3,2.3,2.3c1.3,0,2.3-1,2.3-2.3
			C1490,204.3,1489,203.3,1487.7,203.3"/>
		<path class="st9" d="M1487.7,208.2c-1.4,0-2.6-1.2-2.6-2.6c0-1.4,1.2-2.6,2.6-2.6c1.4,0,2.6,1.2,2.6,2.6
			C1490.3,207,1489.1,208.2,1487.7,208.2z M1487.7,203.6c-1.1,0-2,0.9-2,2c0,1.1,0.9,2,2,2c1.1,0,2-0.9,2-2
			C1489.7,204.5,1488.8,203.6,1487.7,203.6z"/>
		<path class="st8" d="M1449.9,221.3c-1.3,0-2.3,1-2.3,2.3c0,1.3,1.1,2.3,2.4,2.3c1.2,0,2.2-1,2.2-2.3
			C1452.2,222.3,1451.1,221.3,1449.9,221.3"/>
		<path class="st9" d="M1450,226.2c-1.5,0-2.7-1.2-2.7-2.6c0-1.4,1.2-2.6,2.6-2.6c1.4,0,2.6,1.2,2.6,2.6
			C1452.5,225,1451.3,226.2,1450,226.2z M1449.9,221.6c-1.1,0-2,0.9-2,2c0,1.1,0.9,2,2.1,2c1,0,1.9-0.9,1.9-2
			C1451.9,222.5,1451,221.6,1449.9,221.6z"/>
		<path class="st8" d="M1487.7,221.3c-1.3,0-2.3,1-2.3,2.3c0,1.3,1,2.3,2.3,2.3c1.3,0,2.3-1,2.3-2.3
			C1490,222.3,1489,221.3,1487.7,221.3"/>
		<path class="st9" d="M1487.7,226.2c-1.4,0-2.6-1.2-2.6-2.6c0-1.4,1.2-2.6,2.6-2.6c1.4,0,2.6,1.2,2.6,2.6
			C1490.3,225,1489.1,226.2,1487.7,226.2z M1487.7,221.6c-1.1,0-2,0.9-2,2c0,1.1,0.9,2,2,2c1.1,0,2-0.9,2-2
			C1489.7,222.5,1488.8,221.6,1487.7,221.6z"/>
		<path class="st8" d="M1457.1,214.3c3.1,3.9,7,5.8,11.9,5.8c4.5,0,7.6-1.6,11.2-5.8c-3.6-3.7-7-5.3-11.4-5.3
			C1464,209,1459.8,211,1457.1,214.3"/>
		<path class="st6" d="M1459.3,214.3c3.2-2.5,5.9-3.5,9.2-3.5c3.4,0,5.9,1,9.2,3.6c-2.9,2.8-5.4,3.9-9.2,3.9
			C1465.1,218.3,1462,216.9,1459.3,214.3"/>
		<path class="st8" d="M1463.2,213.6c1.9,1.2,3.4,1.7,5.2,1.7c2.1,0,3.9-0.5,5.6-1.7c-1.8-0.9-3.7-1.3-5.5-1.3
			C1466.6,212.3,1464.8,212.7,1463.2,213.6"/>
		<rect x="1444.2" y="197.5" class="st6" width="49.5" height="1.7"/>
		<path class="st9" d="M1493.8,199.2h-49.7v-1.9h49.7V199.2z M1444.3,199h49.3v-1.5h-49.3V199z"/>
		<path class="st8" d="M1451.8,195.3v3.9v0.8c0,1.1,0.9,2,2,2c1.3,0,2.1-0.7,2.1-2v-0.8v-3.8c0-1.8-0.7-2.9-1.9-2.9
			c-0.2,0-0.6,0.1-0.9,0.2c-0.3,0.1-0.4,0.2-0.5,0.3c-0.2,0.2-0.3,0.4-0.5,0.6c-0.2,0.4-0.3,0.7-0.3,0.8"/>
		<path class="st8" d="M1466.7,199.2v0.8c0,1.1,0.9,2,2,2c1.3,0,2.1-0.7,2.1-2v-0.8v-3.8c0-1.8-0.7-2.9-1.9-2.9
			c-1.4,0-2.2,1.1-2.2,2.8"/>
		<path class="st8" d="M1481.1,195.3v3.9v0.8c0,1.1,0.9,2,2,2c1.3,0,2.1-0.7,2.1-2v-0.8v-3.8c0-1.8-0.7-2.9-1.9-2.9
			c-0.2,0-0.6,0.1-0.9,0.2c-0.3,0.1-0.4,0.2-0.5,0.3c-0.2,0.2-0.3,0.4-0.5,0.6c-0.2,0.4-0.3,0.7-0.3,0.8"/>
		<rect x="1450.7" y="235.3" class="st8" width="4.5" height="5.8"/>
		<rect x="1450.7" y="242.4" class="st8" width="4.5" height="1.8"/>
		<rect x="1481.4" y="235.3" class="st8" width="4.5" height="5.8"/>
		<rect x="1481.4" y="242.4" class="st8" width="4.5" height="1.8"/>
	</g>
	<path class="st6" d="M1729,94.4c0,0.7,0,2.8,0,3.5c-0.7,0-2.3,0-2.3,0c-3.4,0-9,0-9,10.5v43.3c0,26.5-11.5,39.4-35.3,39.4
		c-26.8,0-39.2-10.7-39.2-33.6v-49.1c0-10.5-5.7-10.5-10.8-10.5c0,0-0.6,0-1.1,0c0-0.7,0-2.8,0-3.5c1,0,39,0,40.1,0
		c0,0.7,0,2.8,0,3.5c-0.5,0-1.1,0-1.1,0c-5,0-11.2,0-11.2,10.5v46.9c0,20.2,8.4,30,25.8,30c16.9,0,25.8-10.6,25.8-30.6v-46.3
		c0-10.5-5.8-10.5-10.1-10.5c0,0-1.5,0-2.1,0c0-0.7,0-2.8,0-3.5C1699.6,94.4,1728,94.4,1729,94.4"/>
	<path class="st6" d="M1772.3,185.5v3.5c0,0-32.8,0-33.8,0c0-0.7,0-2.8,0-3.5c0.5,0,1.3,0,1.3,0c11.1,0,12.5-8.5,12.5-18v-56.9
		c0-9.1-5.2-12.9-12.6-12.9h-1.2v-3.5h26.6l57.5,70.5v-53.6c0-12.1-8.5-13.4-12.1-13.4c0,0-1.7,0-2.4,0c0-0.7,0-2.8,0-3.5
		c1,0,33.1,0,34.1,0c0,0.7,0,2.8,0,3.5c-0.6,0-1.5,0-1.5,0c-6,0-12.4,1.4-12.4,18v73.7l-5,0l-65.2-78.9l0,57c0,9.5,1.4,18,12.8,18"
		/>
	<path class="st6" d="M1953.6,168.9l20.8-58.2c3.7-9.9,1.3-12.9-7.3-12.9h-1.7v-3.5h26.9v3.5h-0.6c-2.9,0-6.4,0.9-8.9,7.4
		l-31.5,84.1h-6L1911,106c-2.7-6.9-5.9-8.2-11.7-8.2c0,0-0.4,0-0.8,0c0-0.7,0-2.8,0-3.5c1,0,38.1,0,39.1,0c0,0.7,0,2.8,0,3.5
		c-0.7,0-2.5,0-2.5,0c-6.7,0-8,4.2-6.1,9.3"/>
	<path class="st6" d="M2126,94.3c20.9,0,31.4,7.7,31.4,23.6c0,13.5-10.5,20.3-18.8,23.6l-0.6,0.2l23.2,35.3
		c3.7,5.7,6.7,7.9,13.1,8.3c0,0.6,0,2.8,0,3.5c-1,0-24.2,0-24.2,0l-28.1-44.4h-10.5V174c0,10.7,4.8,11.5,11.5,11.5c0,0,1.2,0,1.9,0
		c0,0.7,0,2.8,0,3.5c-1,0-40.1,0-41.1,0c0-0.7,0-2.8,0-3.5c0.6,0,1.9,0,1.9,0c4.6,0,10-2.1,10-7.9v-68.8c0-11-6.5-11-10-11
		c0,0-1.2,0-1.9,0c0-0.7,0-2.8,0-3.5C2084.7,94.3,2126,94.3,2126,94.3 M2111.5,98.8l0,41.9h8.1c14.7,0,21.2-6.6,21.2-21.9
		c0-12.5-8-20.6-20.2-20.6C2117.8,98.2,2113.9,98.4,2111.5,98.8z"/>
	<path class="st6" d="M2224.3,171c0-11.5-9.9-16.1-19.1-20.9c-10.8-5.6-23.2-11.4-23.2-28.9c0-16.9,12.9-27.8,31.3-27.8
		c7.5,0,16.1,1.5,19.8,2.3l1.3,18.4l-3.5,0.5c-1.6-9.7-6.7-17.1-17.6-17.1c-10.2,0-17.8,6.3-17.8,17.6c0,10.7,9.8,15,19,19.7
		c11.2,5.7,24.1,11.5,24.1,29.1c0,19.5-17.4,28.3-33.5,28.3c-6.4,0-15.3-1.3-22.4-5.3l-2.3-20.5l3.4-0.6
		c2.6,13.6,11.2,21.5,22.6,21.5C2217.4,187.2,2224.3,180.6,2224.3,171"/>
	<path class="st6" d="M2291.8,94.4c0,0.7,0,2.8,0,3.5c-0.5,0-1.3,0-1.3,0c-5.4,0-10.4,1-10.4,8.4v71c0,7.3,5,8.4,10.4,8.4
		c0,0,0.8,0,1.3,0c0,0.7,0,2.8,0,3.5c-1,0-38.5,0-39.5,0c0-0.7,0-2.8,0-3.5c0.5,0,1.3,0,1.3,0c5.4,0,10.4-1,10.4-8.4v-71
		c0-7.3-5-8.4-10.4-8.4c0,0-0.8,0-1.3,0c0-0.7,0-2.8,0-3.5C2253.3,94.4,2290.8,94.4,2291.8,94.4"/>
	<path class="st6" d="M1893,94.4c0,0.7,0,2.8,0,3.5c-0.5,0-1.3,0-1.3,0c-5.4,0-10.4,1-10.4,8.4v71c0,7.3,5,8.4,10.4,8.4
		c0,0,0.8,0,1.3,0c0,0.7,0,2.8,0,3.5c-1,0-38.5,0-39.5,0c0-0.7,0-2.8,0-3.5c0.5,0,1.3,0,1.3,0c5.4,0,10.4-1,10.4-8.4v-71
		c0-7.3-5-8.4-10.4-8.4c0,0-0.8,0-1.3,0c0-0.7,0-2.8,0-3.5C1854.5,94.4,1892,94.4,1893,94.4"/>
	<path class="st6" d="M2680.7,231l0.3,25.1c0,0-3,0.8-4,1c-0.9-11-3.4-19.9-20.9-19.9h-23.6v46.4h20.3c9.9,0,12.6-5.6,13.8-15.1
		c0.8,0,3.2,0,4,0c0,1.3,0,38.8,0,38.8l-4,0.1c-0.6-9.3-2.8-16.5-13.7-16.5h-20.3v40.8c0,11.9,10.2,11.9,21,11.9
		c19.4,0,28.4-1.2,33.8-20.8c0.8,0.2,4,0.9,4,0.9l-5.4,26.2c0,0-86.8,0-88.1,0c0-0.9,0-3.5,0-4.3c0.7,0,1.7,0,1.7,0
		c6.8,0,13-1.3,13-10.5v-89c0-9.2-6.2-10.5-13-10.5c0,0-1,0-1.7,0c0-0.9,0-3.5,0-4.3C2599,231,2680.7,231,2680.7,231"/>
	<path class="st6" d="M2200.6,231c26.3,0,39.3,9.7,39.3,29.6c0,16.9-13.2,25.4-23.6,29.6l-0.8,0.3l29.1,44.3
		c4.7,7.2,8.5,10,16.5,10.4c0,0.8,0,3.5,0,4.4c-1.2,0-30.4,0-30.4,0l-35.3-55.7h-13.1v37c0,13.4,5.9,14.4,14.3,14.4c0,0,1.5,0,2.4,0
		c0,0.9,0,3.5,0,4.3c-1.3,0-50.3,0-51.6,0c0-0.9,0-3.5,0-4.3c0.8,0,2.3,0,2.3,0c5.8,0,12.5-2.6,12.5-10v-86.3
		c0-13.8-8.1-13.8-12.5-13.8c0,0-1.5,0-2.3,0c0-0.9,0-3.5,0-4.3C2148.7,231,2200.6,231,2200.6,231 M2182.3,236.6l0,52.6h10.1
		c18.5,0,26.6-8.2,26.6-27.5c0-15.7-10.1-25.8-25.3-25.8C2190.2,235.8,2185.7,236,2182.3,236.6z"/>
	<path class="st6" d="M2318,231c0,0.9,0,3.5,0,4.3c-0.7,0-1.7,0-1.7,0c-6.8,0-13,1.3-13,10.5v89.1c0,9.2,6.3,10.5,13,10.5
		c0,0,1,0,1.7,0c0,0.9,0,3.5,0,4.3c-1.3,0-48.3,0-49.6,0c0-0.9,0-3.5,0-4.3c0.7,0,1.7,0,1.7,0c6.8,0,13-1.3,13-10.5v-89.1
		c0-9.2-6.2-10.5-13-10.5c0,0-1,0-1.7,0c0-0.9,0-3.5,0-4.3C2269.6,231,2316.7,231,2318,231"/>
	<path class="st6" d="M2312.4,94.4h62.6c3.1,0,7.2-0.8,7.8-4.9l3,0l-2.4,24.7l-3.4,0c-0.2-5.7-1-14-10.2-14h-19.1v73.1
		c0,11.4,5.5,12.3,11.6,12.3c0,0,1.3,0,2,0c0,0.7,0,2.8,0,3.5c-1,0-42.1,0-43.1,0c0-0.7,0-2.8,0-3.5c0.7,0,2,0,2,0
		c7.2,0,11.6-0.6,11.6-12.1v-73.3h-19.3c-9.8,0-10.8,4.3-12.7,13.9h-3.4l2.2-24.4c0,0,2.3,0,2.8,0
		C2305.7,93.6,2309.1,94.4,2312.4,94.4"/>
	<path class="st6" d="M2482.7,94.4v3.5c-5.5,0.3-8.7,4-11.2,7.5c0,0-24,37-24,37v30.2c0,12,4.4,12.9,11.6,12.9c0,0,1.3,0,2,0
		c0,0.7,0,2.8,0,3.5c-1,0-42.1,0-43.1,0c0-0.7,0-2.8,0-3.5c0.7,0,2,0,2,0c7.5,0,11.6-1.9,11.6-11.8v-29.1l-26.1-37.3
		c-4-5.7-7-9.5-13.3-9.5h-0.8v-3.5h39.1v3.5h-1.2c-7.5,0-8.1,4-4.8,8.5l20.2,31.3l17.9-28.3c4.1-6.2,5.3-11.6-4.9-11.6h-1.6l0-3.5"
		/>
	<path class="st6" d="M2511.4,142.4c0-28.1,21.3-50.1,48.6-50.1c29.7,0,50.4,19.2,50.4,46.8c0,30.1-20.9,52-49.7,52
		C2532.1,191,2511.4,170.6,2511.4,142.4 M2528.9,137.6c0,23.4,10.3,48.5,33,48.5c20.8,0,30.8-14.4,30.8-44
		c0-21.7-11.6-44.8-33.1-44.8C2531.2,97.2,2528.9,128.1,2528.9,137.6z"/>
	<path class="st6" d="M2621.1,189c0-0.7,0-2.8,0-3.5c0.5,0,1.3,0,1.3,0c5.4,0,10.4-1,10.4-8.4v-71c0-7.3-5-8.4-10.4-8.4
		c0,0-0.8,0-1.3,0c0-0.7,0-2.7,0-3.4h66.1l0.2,20c-0.5,0.1-2.4,0.6-3.2,0.8c-0.7-8.1-2.6-15.9-13.9-15.9h-21.6v37h18.9
		c7.8,0,9-6.2,9-11.1c0.7,0,2.4,0,3.1,0v0v30.3c-0.7,0-2.5,0-3.1,0c-0.1-5.9-1.4-13.4-11.2-13.4h-16.8v35.1c0,8.4,7.1,8.4,13.3,8.4
		c0,0,0.7,0,1.2,0c0,0.7,0,2.7,0,3.5"/>
	<path class="st6" d="M1638.9,290.3c0-17.6,7.2-35,19.5-46c11.4-10.3,26.4-16,43.4-16c15.2,0,27.8,2.7,40.2,8.5l1.3,27.5l-3.9,0.5
		c-4.5-15.9-11.9-30.5-37.1-30.5c-25.8,0-41.9,20.5-41.9,53.4c0,29.3,13,57,44.4,57c17.7,0,30.3-6.6,39.8-18.8l3.1,5.8
		c-10.7,13.8-27.3,21.2-46.1,21.2C1663.3,352.8,1638.9,330.3,1638.9,290.3"/>
	<path class="st6" d="M1894.8,254c0,0-3.9,73.3-3.9,73.3c-0.7,16.2,4.3,17.7,15.2,18.1h1v4.3h-40v-4.3h1.5c13.5-0.5,14.3-8,14.9-19
		l4.6-75c0.6-10.2-5-16-14.4-16c0,0-0.7,0-1.4,0c0-0.9,0-3.4,0-4.3c1.5,0,32.6,0,33.6,0c0.4,1,40.3,90,40.3,90s37.7-89,38.1-90
		c0.9,0,32.9,0,32.9,0l0,4.4h-0.6c-13.3,0-15.7,4.1-14.7,20.9l4.6,78.7c0.7,9.2,5.5,10,14.6,10.4c0,0.9,0,3.3,0,4.3
		c-1.5,0-47.8,0-49.3,0c0-1,0-3.4,0-4.3c0.1,0,0.3,0,0.3,0c8-0.5,13.8-0.8,13.8-8.9l-0.2-8.5c0,0-3.6-75.9-3.6-75.9
		s-40.6,97.6-41,98.5c-0.7,0-2.9,0-3.6,0C1937.4,349.6,1894.8,254,1894.8,254"/>
	<path class="st6" d="M2336.6,349.7v-4.4h1.7c6.8,0,13-1.3,13-10.5v-89c0-9.2-6.3-10.5-13-10.5h-1.7V231l53.1,0
		c19.7,0,36.2,5,47.8,15.7c11.4,10.6,17.4,25.6,17.4,43.4c0,16.6-6.6,32.7-18.2,44.2c-11.6,11.5-27.9,15.4-44.3,15.4 M2371.5,236.6
		l0,93.2c0,12.6,5.3,14.6,18.1,14.6c30,0,43.6-25.8,43.6-51.1c0-39.3-16.2-57.2-49.6-57.2C2380.6,236.1,2374.3,236.3,2371.5,236.6z"
		/>
	<path class="st6" d="M2555.9,343.6v-29.1c0-6.4-4.6-9.7-13.4-9.7h-1.4v-4.2h45.6v4.2h-1.4c-6.4,0-9.8,3.4-9.8,9.7l0,32.4
		c-10.9,3.5-25.5,6.3-41.7,6.3c-39.2,0-64.5-25.4-64.5-64.7c0-41.8,33.4-60.8,64.8-60.8c14.1,0,28.5,2.8,37.7,5.9l1.9,28.3l-4,0.2
		c-4.9-20.4-14-28.4-34.5-28.4c-27.6,0-44.3,20.3-44.3,53.1c0,30.1,14.1,59.9,45.6,59.9C2544,346.7,2551.5,345.6,2555.9,343.6"/>
	<path class="st6" d="M2073,288.2V330c0,11.6,3.7,14.9,15.7,14.9c14.5,0,25.4-11.9,25.4-28.1c0-18.2-11.1-28.6-29.7-28.6
		 M2073,235.4V283h8.9c16.4,0,25.4-7.9,25.4-23.1c0-16.8-7.9-24.6-23.5-24.6H2073z M2097.4,285.1c14.9,1.1,22.9,4.4,29.6,11.2
		c5.2,5.3,7.9,12,7.9,19.8c0,18.6-17.1,33.6-39.3,33.6l-58.2,0v-4.3h2.3c5.8,0,12.5-2.7,12.5-10.1v-86.1c0-13.7-8.1-13.7-12.5-13.7
		h-2.3V231l52.7,0c24.7,0,38.4,9,38.4,26C2128.5,275.8,2111.9,282.7,2097.4,285.1"/>
	<path class="st6" d="M1800.3,231c0,0-37.7,102.4-37.7,102.5c-2.8,7.3-7.7,11.8-15,11.8h-0.4l0,4.5h36.1l0-4.5h-1.6
		c-8.7,0-14.6-2.8-10.8-14l8.6-23.9h37.4l9.4,26.1c2.7,8.2-0.8,12-9.8,12h-1l0,4.4h46l0-4.4h-0.4c-6.1,0-10.3-3.2-13.2-11.4
		l-38.7-103 M1798.2,255.2l16.6,46.2h-33.2L1798.2,255.2z"/>
	<path class="st6" d="M2064.8,94.3l0.3,20c0,0-2.4,0.6-3.2,0.8c-0.7-8.8-2.7-15.9-16.7-15.9h-18.8v37h16.1c7.9,0,10.1-4.4,11-12.1
		c0.6,0,2.5,0,3.2,0c0,1,0,30.9,0,30.9l-3.2,0c-0.5-7.4-2.2-13.1-10.9-13.1h-16.2v32.5c0,9.5,8.1,9.5,16.7,9.5
		c15.4,0,22.6-1,26.9-16.6c0.6,0.2,3.2,0.7,3.2,0.7l-4.3,20.9c0,0-69.2,0-70.2,0c0-0.7,0-2.8,0-3.5c0.5,0,1.3,0,1.3,0
		c5.4,0,10.4-1,10.4-8.4v-71c0-7.3-5-8.4-10.4-8.4c0,0-0.8,0-1.3,0c0-0.7,0-2.8,0-3.5C1999.7,94.3,2064.8,94.3,2064.8,94.3"/>
</g>
<g>
	<path class="st0" d="M771.8,174.1h-10.3v-37.2h-0.6L747,167.7h-10.6l-14-30.8h-0.6v37.2h-10.3v-56h13l17,38.4h0.6l17-38.4h12.9
		V174.1z"/>
	<path class="st0" d="M815,174.1l-11.7-21.8h-9.1v21.8h-10.3v-56H806c11.2,0,18.1,6.6,18.1,16.5c0,7.6-4.2,13.2-10.8,15.8l12.9,23.8
		H815z M794.2,143.3h10.6c5.4,0,8.7-3.4,8.7-8.2c0-5-3.3-8.1-8.7-8.1h-10.6V143.3z"/>
	<path class="st0" d="M858.7,174.9c-17.1,0-27.5-12.1-27.5-28.6c0-17,11-29,27.5-29c12.6,0,22.7,6.7,24.6,19.1H872
		c-1.8-5.8-6.5-9.4-13.3-9.4c-10,0-16.7,8.4-16.7,19.3c0,11.3,7.2,18.8,16.7,18.8c7.3,0,12.4-3.6,14.2-9h11.4
		C882.4,168.1,871.7,174.9,858.7,174.9z"/>
	<path class="st0" d="M749.7,246.9v9.2h-38.3v-56h37.5v9.2h-27.2v13.9h23.4v9h-23.4v14.7H749.7z"/>
	<path class="st0" d="M798,236.2c0,13-8.3,20.7-18.8,20.7c-5.4,0-9.4-2.2-11.6-4.6v19.8h-10.2v-56h8.3l0.9,4.7h0.7
		c1.9-2.6,5.7-5.5,11.9-5.5C789.9,215.3,798,223.4,798,236.2z M787.8,236.2c0-7.2-4.1-12-10.2-12s-10,4.8-10,12
		c0,7,3.9,11.8,10,11.8S787.8,243.2,787.8,236.2z"/>
	<path class="st0" d="M804.2,204.8c0-3.5,3-6.2,6.3-6.2c3.4,0,6.2,2.7,6.2,6.2c0,3.3-2.8,6.2-6.2,6.2
		C807.2,211,804.2,208.1,804.2,204.8z M805.4,216.1h10.2v40h-10.2V216.1z"/>
	<path class="st0" d="M863.7,199.3v56.8h-8.3l-0.9-4.7h-0.7c-1.9,2.6-5.7,5.5-11.9,5.5c-10.7,0-18.8-8.2-18.8-20.9
		c0-13,8.3-20.7,18.8-20.7c5.4,0,9.4,2.2,11.6,4.6v-20.6H863.7z M853.4,236c0-7-3.9-11.8-10-11.8c-6.1,0-10.2,4.8-10.2,11.8
		c0,7.2,4.1,12,10.2,12C849.5,248,853.4,243.2,853.4,236z"/>
	<path class="st0" d="M910.2,243.4c-1.6,8.2-8.5,13.4-18.6,13.4c-11.9,0-20.6-8.1-20.6-20.4c0-13.2,9.1-21.2,20.2-21.2
		c9.8,0,19,6.2,19,20.6c0,1-0.1,1.8-0.2,3h-28.8c0.4,5.8,4.2,9.9,10.4,9.9c4.5,0,7.7-1.8,8.8-5.3H910.2z M881.2,231.9h19.1
		c-0.2-5-3.9-8.5-9.2-8.5C885.6,223.4,881.9,227.1,881.2,231.9z"/>
	<path class="st0" d="M917.8,216.1h9.4l0.9,4.7h0.6c2.2-3,5.5-5.5,11-5.5c6.3,0,9.1,3.4,10.5,6.3h0.6c2.2-3.1,5.7-6.3,12.5-6.3
		c8.2,0,13.5,5,13.5,14.6v26.2h-10.2v-24.2c0-5.1-3-7.7-6.9-7.7c-4.3,0-7.3,3.2-7.3,8.2v23.7h-10.2v-23.9c0-5.3-3-8-6.8-8
		c-3.7,0-7.3,2.6-7.3,8.2v23.8h-10.2V216.1z"/>
	<path class="st0" d="M984.6,204.8c0-3.5,3-6.2,6.3-6.2c3.4,0,6.2,2.7,6.2,6.2c0,3.3-2.8,6.2-6.2,6.2
		C987.5,211,984.6,208.1,984.6,204.8z M985.8,216.1H996v40h-10.2V216.1z"/>
	<path class="st0" d="M1003.3,236c0-12.3,9.1-20.7,21.1-20.7c12,0,21.1,8.5,21.1,20.7c0,12.4-9,20.9-21.1,20.9
		C1012.5,256.9,1003.3,248.3,1003.3,236z M1035.4,236c0-6.6-4.4-11.8-11-11.8c-6.6,0-10.9,5.2-10.9,11.8c0,6.7,4.3,12,10.9,12
		C1031,248,1035.4,242.7,1035.4,236z"/>
	<path class="st0" d="M1052.9,199.3h10.2v56.8h-10.2V199.3z"/>
	<path class="st0" d="M1070.5,236c0-12.3,9.1-20.7,21.1-20.7c12,0,21.1,8.5,21.1,20.7c0,12.4-9,20.9-21.1,20.9
		C1079.7,256.9,1070.5,248.3,1070.5,236z M1102.6,236c0-6.6-4.4-11.8-11-11.8c-6.6,0-10.9,5.2-10.9,11.8c0,6.7,4.3,12,10.9,12
		C1098.2,248,1102.6,242.7,1102.6,236z"/>
	<path class="st0" d="M1151.1,221.6c1.7,2.2,2.6,4.7,2.6,7.5c0,8.5-7.3,13.4-16.8,13.4c-2.5,0-4.7-0.3-6.7-0.9
		c-1.3,0.6-1.9,1.5-1.9,2.6c0,2.3,2.6,3,5.3,3h7.8c9.6,0,14.6,4.6,14.6,11.8c0,8.6-7.2,13.7-18.8,13.7c-12.7,0-18.6-6.3-19.4-13.4
		l6.1-5.4c-2.8-1.5-4.6-4.2-4.6-7.4c0-3.8,2.5-6.2,5.4-7.8c-3-2.3-4.7-5.6-4.7-9.8c0-7.8,6.3-13.8,16.6-13.8c3.5,0,6.7,0.7,9.3,2
		c2.6-1.3,5.3-3.5,6.9-5.7l5,5.6C1156.3,218.6,1153.8,220.3,1151.1,221.6z M1140.1,255.4h-7.3l-5.3,4.5c0.9,2.8,3.8,5.4,9.7,5.4
		c4.9,0,9-1.8,9-5.4C1146.1,256.4,1143,255.4,1140.1,255.4z M1143.9,229c0-3.7-2.6-6.3-7-6.3c-4.5,0-7.3,2.6-7.3,6.3
		c0,3.5,2.8,6.2,7.3,6.2C1141.3,235.1,1143.9,232.5,1143.9,229z"/>
	<path class="st0" d="M1165.3,272v-7.6c1.5,0.3,3,0.5,4.2,0.5c3.8,0,7.2-1.4,8.8-5.4l1.4-3.4h-3.2l-15.3-40h10.6l10.9,29.5h0.6
		l10.2-29.5h10.6l-16.2,45c-1.2,3.5-4.3,11.8-16,11.8C1169.2,272.9,1167.2,272.5,1165.3,272z"/>
	<path class="st0" d="M757.4,316.4c0,15.2-9.8,22.5-22.9,22.5c-13.1,0-23.1-7.3-23.1-22.5v-34.3h10.6v34c0,8.5,5.3,13,12.6,13
		s12.3-4.6,12.3-13v-34h10.6V316.4z"/>
	<path class="st0" d="M767.5,298.1h9.4l0.9,4.7h0.6c2.4-3.1,5.8-5.5,11.8-5.5c9.5,0,15.6,6.1,15.6,16.6v24.2h-10.2v-22.2
		c0-6.6-3.8-9.8-8.6-9.8c-4.9,0-9.2,3.1-9.2,10.2v21.7h-10.2V298.1z"/>
	<path class="st0" d="M813.5,286.8c0-3.5,3-6.2,6.3-6.2c3.4,0,6.2,2.7,6.2,6.2c0,3.3-2.8,6.2-6.2,6.2
		C816.5,293,813.5,290.1,813.5,286.8z M814.7,298.1H825v40h-10.2V298.1z"/>
	<path class="st0" d="M838.9,327.2v-21h-8.6v-8.1h2.7c4.9,0,6.8-1.8,6.8-6.1v-4.8h9.3v10.9h10.5v8.1h-10.5v19.7c0,2.2,0.6,5,5.4,5
		c1.2,0,2.7-0.2,3.9-0.6v7.8c-1.8,0.4-4.2,0.9-7,0.9C840.1,338.9,838.9,331.6,838.9,327.2z"/>
</g>
</svg>
